<svg xmlns="http://www.w3.org/2000/svg" viewBox="0 0 700 259"><defs><style>.cls-1{fill:none;stroke:#0071bc;stroke-miterlimit:10;}.cls-2{fill:#e8d348;}.cls-3{fill:#030403;}.cls-4{fill:#882a7a;}.cls-5{fill:#fce94f;}.cls-6{fill:#6cf;}.cls-7{fill:#f9f3b6;}.cls-8{fill:#4abfed;}.cls-9{fill:#686868;}</style></defs><title>hadoop-consulting-and-support</title><g id="Layer_3" data-name="Layer 3"><polyline class="cls-1" points="403.61 110.69 457.37 110.69 480.74 86.6 516.51 86.6"/><polyline class="cls-1" points="397.04 149.39 500.08 149.02 504.47 153.4 617.64 153.4 626.76 162.53"/><polyline class="cls-1" points="403.25 135.52 489.86 135.52 501.61 123.53 613.99 123.53 629.65 139.2"/><polyline class="cls-1" points="522.35 123.53 547.03 98.86 615.81 98.86 635.24 118.28"/><polyline class="cls-1" points="401.06 123.47 457.74 123.47 471.61 109.6 509.58 109.6"/><polyline class="cls-1" points="431.06 95.02 452.08 74 558.5 74 565.34 80.85"/><polyline class="cls-1" points="429.2 70.67 441.49 70.67 449.1 63.07 659.18 63.07 669.46 52.79"/><polyline class="cls-1" points="172.59 92.14 224.07 92.14 246.23 69.98 270.5 69.98"/><polyline class="cls-1" points="43.19 35.49 43.19 57.03 53.78 67.61 180.52 67.61 190.19 77.29 215.57 77.29 245.41 47.17 441.31 47.17"/><polyline class="cls-1" points="192.93 77.47 233.82 36.58 359.75 36.58 364.39 31.95 536.7 31.95 542.44 26.21"/><polyline class="cls-1" points="390.47 166.18 395.58 171.29 554.12 171.29"/><polyline class="cls-1" points="380.4 183.15 425.73 228.49 565.8 228.49"/><polyline class="cls-1" points="395.19 197.94 404.56 188.57 414.66 188.57 435.8 209.71 669.45 209.71 674.72 214.97"/><polyline class="cls-1" points="418.57 243.11 413.2 237.73 257.71 237.73"/><polyline class="cls-1" points="380.4 183.15 217.11 183.15 210.88 176.93"/><polyline class="cls-1" points="438.88 228.49 450.64 240.25 598.01 240.62 607.92 230.71"/><polyline class="cls-1" points="71.51 197.21 78.08 190.64 91.22 190.64 107.65 174.21 181.03 174.21 204.64 197.82 211.15 204.15 357.38 204.15"/><polyline class="cls-1" points="195.89 189.44 114.85 189.44 108.1 196.19"/><circle class="cls-1" cx="69.14" cy="199.22" r="3.1"/><circle class="cls-2" cx="105.54" cy="198.75" r="3.65"/><circle class="cls-2" cx="208.45" cy="174.98" r="3.65"/><circle class="cls-1" cx="360.66" cy="203.78" r="3.65"/><circle class="cls-1" cx="387.91" cy="163.63" r="3.65"/><circle class="cls-2" cx="395.58" cy="149.39" r="2.92"/><circle class="cls-1" cx="399.96" cy="135.52" r="2.92"/><circle class="cls-2" cx="399.96" cy="123.83" r="2.92"/><circle class="cls-1" cx="399.96" cy="110.69" r="2.92"/><circle class="cls-2" cx="671.22" cy="49.44" r="3.65"/><circle class="cls-2" cx="557.4" cy="172.02" r="3.65"/><circle class="cls-2" cx="569.08" cy="228.24" r="3.65"/><circle class="cls-2" cx="676.39" cy="217.68" r="3.65"/><circle class="cls-2" cx="629.68" cy="164.72" r="3.65"/><circle class="cls-1" cx="632.6" cy="141.36" r="3.65"/><circle class="cls-1" cx="610.6" cy="227.36" r="3.65"/><polyline class="cls-1" points="270.37 69.99 289.63 89.5 409 89.86"/><circle class="cls-1" cx="412.6" cy="90.36" r="3.65"/><circle class="cls-2" cx="637.35" cy="119.09" r="3.65"/><circle class="cls-1" cx="567.07" cy="83.13" r="3.1"/><circle class="cls-2" cx="520.16" cy="86.6" r="3.65"/><circle class="cls-2" cx="512.86" cy="109.96" r="3.65"/><circle class="cls-2" cx="544.35" cy="24.47" r="3.65"/><circle class="cls-1" cx="426.65" cy="70.8" r="2.92"/><circle class="cls-2" cx="444.23" cy="47.17" r="3.65"/><circle class="cls-2" cx="169.67" cy="92.51" r="3.65"/><circle class="cls-2" cx="43.56" cy="35.49" r="2.19"/><circle class="cls-2" cx="429.24" cy="96.48" r="3.65"/><circle class="cls-1" cx="421.13" cy="246.03" r="3.65"/><circle class="cls-2" cx="254.06" cy="237.73" r="3.65"/><path class="cls-3" d="M220.92,112.93a65.12,65.12,0,0,0,8.08,0l3.84.06a.64.64,0,0,0,.72-.56c.25-1.23.5-2.45.72-3.68.64-2,.95-4,1.42-6,.17-.7.39-.89,1.06-.86,3.54,0,7.07,0,10.61,0H256c-.78,3.59-1.5,7-2.34,10.47-.22.89,0,1,.84,1,7.91,0,15.84,0,23.75,0,.67,0,1.31,0,2-.06,1.25,0,2.51.08,3.76,0a9.55,9.55,0,0,1,6,1.48c.45.31.78.11,1.14-.08a13,13,0,0,1,6.13-1.42c6.4,0,12.78,0,19.19,0,2.14,0,4.32,0,6.46-.06l14.65.06c2.78,0,5.54,0,8.33-.06h14.7l5.43,0a6.34,6.34,0,0,0,.72.06c4.37.31,7,2.84,7.41,7a14.47,14.47,0,0,1-.39,3.93,28.24,28.24,0,0,0-.75,4c-.75,2.28-1.09,4.65-1.64,7-.61,2.65-1.14,5.29-1.75,7.94a13.2,13.2,0,0,1-13.2,10.44c-5.35,0-10.72,0-16.07,0-.75,0-1,.19-1.17.92-.67,3.2-1.39,6.38-2.06,9.58-.14.61-.36.84-1,.84q-9.19,0-18.38,0c-.7,0-.86-.14-.7-.86.81-3.51,1.53-7,2.26-10.39H288a10.23,10.23,0,0,1-5.24-1.53.89.89,0,0,0-1,0,14,14,0,0,1-6.49,1.28H226l-1.36,0-1.25,0H198.7c-.89,0-1.81,0-2.7.06l-4.15,0h-4.57a.35.35,0,0,0-.17,0c-1.39,0-2.81,0-4.2,0l-2.39,0H145c-1.45,0-1.45,0-1.17-1.42.22-1,.42-2,.64-3a2.18,2.18,0,0,0,.14-.39l4.68-20.72c.19-.81-.14-1.06-.92-1-1.87,0-3.76,0-5.63,0-.58,0-.84.14-1,.75-.39,2-.89,3.93-1.34,5.88-1.2,5.32-2.37,10.61-3.56,15.93l-.67,2.92c-.11.84-.53,1.06-1.39,1-6.32,0-12.64,0-19,0,0-.81.47-1.53.33-2.37.61-.58.53-1.42.7-2.12,1.56-6.79,3.06-13.62,4.57-20.44.06-.28.08-.53.14-.95a15.74,15.74,0,0,1-5.68,1.89,20,20,0,0,1-5.63,0c-.81-.14-1.14.06-1.34.89a7.46,7.46,0,0,1-6.32,5.85,5.73,5.73,0,0,1-5.07-1.62c-1-.86-1.92-1.78-2.87-2.67-.39.22-.14.45-.08.64.53,1.34,1,2.65,1.59,4a15.47,15.47,0,0,1,.78,5.74A8.33,8.33,0,0,0,97.4,145c1.06,2.84-.53,5.21-3.54,5.24-2,0-4,0-6,0a3,3,0,0,1-1.23-.17c-1.36-.67-2.34-.11-3.34.84a19.18,19.18,0,0,0-3.2,3.34,5.14,5.14,0,0,1-7.38,1,18.52,18.52,0,0,1-5.12-7.63c-.61-1.62-.61-3.23,1.5-4.29L64.43,143c-.5,0-.36.33-.31.56a4.39,4.39,0,0,1-1,3.79,4.69,4.69,0,0,0-1.14,3.45,4.33,4.33,0,0,1-.19,1.45c-.42,2-1.28,2.76-3.34,2.92a10.14,10.14,0,0,1-2.59-.17,41,41,0,0,1-7-1.84c-2.78-1-3.37-2.45-2.26-5.18a2.56,2.56,0,0,0,.39-1.28,11,11,0,0,1-10-8.91,2.26,2.26,0,0,1,.72-2.34c.64-.56,1.14-1.23,1.78-1.75A8.09,8.09,0,0,0,42,129.55a2.54,2.54,0,0,0,.06-1.11,28.48,28.48,0,0,1-.19-8c.06-.5.11-.81-.64-.75a3.66,3.66,0,0,1-4-2.73,9.24,9.24,0,0,0-1.23-2.73,2.79,2.79,0,0,1-.39-2.39c.61-2.76,4.71-6.18,7.57-6.35.14.17,0,.33,0,.47a2.68,2.68,0,0,0,0,2.84c.78,1.28.33,2.81-.08,4.29-.61-.39-.81-1-1.34-1.5-.25,1.23-.28,2.45-1.17,3.34a6.36,6.36,0,0,0,4-3.12c3.93-6.88,10-10.64,17.49-12.34A37.94,37.94,0,0,1,66,98.72a3.13,3.13,0,0,0,1.87-1c.95-.95,2-1.87,3-2.76a4.07,4.07,0,0,1,2.2-1.11,2.79,2.79,0,0,0,2.09-1.31c3.76-5.24,9.27-7.32,15.32-8.35,5.18-.89,9.55,1.06,13.42,4.34a77.59,77.59,0,0,0,7.71,6,12.14,12.14,0,0,1,4,5.1c.31.61.56.64,1.09.36A5.46,5.46,0,0,0,119,98.11l.58-.86a3.73,3.73,0,0,1,6.6.58,11.9,11.9,0,0,1,1.09,2.92c.14.64.45.84,1.14.84,6,0,11.89,0,17.85,0,.86,0,1.11.11.86,1.09-.81,3.23-1.53,6.49-2.28,9.75-.11.47-.25.84.53.84,18.85,0,37.54,0,56.22,0h.11c1.62.08,3.26-.11,4.79.61a7.08,7.08,0,0,1,1.39.64,1.49,1.49,0,0,0,2.17-.17c.14,0,.22,0,.25-.17h0a16.47,16.47,0,0,1,5.54-1.2Q218.38,112.93,220.92,112.93Zm-180-4.85a7.54,7.54,0,0,0-3.26,3.4,2.41,2.41,0,0,0,.31,3c.25.72.45,1.45.72,2.17A2,2,0,0,0,41,118.16c1.75-.08,2.34-.72,2.53-2.76.06.08.11.08.14,0a.1.1,0,0,0,0-.08c0,.06-.08.08-.11.14A11.23,11.23,0,0,1,41,116.66c-.58.11-1.09,0-1.31-.58s-.95-1-.45-1.53c1.14-1.2,1.06-2.65,1.09-4.09.22-.75.42-1.48.64-2.23,0-.08.08-.19.06-.19S40.9,108,40.9,108.08ZM41.45,142a9,9,0,0,0,3.84,2.56,2,2,0,0,0,3-1.59.86.86,0,0,0-.11-.78,41.89,41.89,0,0,1-4.85-10.28c-.39.67-.47,1.39-1,1.89l-1.75,1.75c-1.73,1.73-1.84,2.51-.58,4.65A5.91,5.91,0,0,0,41.45,142Zm32.22-46.2h0a4.82,4.82,0,0,0-2.28,1.56C69,99.62,67,102.18,64.82,104.6a31.71,31.71,0,0,0-6.29,9.11,3.68,3.68,0,0,0,.39,4c.31.42.64.81,1,1.2a18.36,18.36,0,0,1,2.2,3.68,46.58,46.58,0,0,1,4-5l.17.19c-.31.58-.64,1.14-.95,1.73a45.55,45.55,0,0,0-3.06,5.9c-.31.81-.7,1.78-.19,2.48,1.56,2.17,3.56,3.59,6.43,3.2,1.56-.19,2.81-1.14,4.15-1.87,2.53-1.39,5-2.78,8-3.15.56-.06.64-.5.78-.84,1.2-2.78,1.11-5.68.75-8.6a45.28,45.28,0,0,1-.75-7.24,14.52,14.52,0,0,1,.75-4.46c.06.64.11,1.28.19,1.95a47.8,47.8,0,0,0,.89,6.91,23.41,23.41,0,0,1-.06,11.36c-.42,1.42-.75,2.45-2.65,2.62-3.17.28-5.88,2.09-8.55,3.65a8.32,8.32,0,0,1-7.66.75c-.86-.58-1.64-1.25-2.45-1.89-1.5-1.17-2.14-2.53-1.42-4.37a2.77,2.77,0,0,0-.11-3.17,29,29,0,0,0-2.9-4,4.8,4.8,0,0,1-.61-5.24c.25-.5.47-1,.72-1.48.7-1.36,1.42-2.73,2.14-4.09a16.33,16.33,0,0,0,2-2.34c1.23-1.39,2.39-2.81,3.73-4.4-4.48.64-8.52,1.78-12.06,4.29-9.44,6.74-12.28,17.85-7.71,28.46a32.22,32.22,0,0,0,4,7.66,2.31,2.31,0,0,1,.36,1.84,28.9,28.9,0,0,1-1.42,5.54,1.65,1.65,0,0,0,.78,2.23,7.29,7.29,0,0,0,3,1,15.48,15.48,0,0,0,5.37,1c1.56,0,2.2-.47,2.09-2a6.55,6.55,0,0,1,1.56-4.4,6.25,6.25,0,0,0,1.11-3.81c0-1.75,0-3.54.06-5.32.22,1,.45,2,.7,3-.06.53.36.39.64.45a28,28,0,0,0,9.52-.08,1,1,0,0,0,.89-.84c.22-.67.19-1.53,1-1.92a9,9,0,0,0-.19,2.59c0,.86.06,1.73.11,2.62-.89-.92-.89-.92-1.95-.22l-1.59,1c-2.31,1.36-2.48,1.95-1.28,4.37.22.42.5.81.78,1.23a11,11,0,0,0,2.78,3.7,2.83,2.83,0,0,0,4.32-.42c1.17-1.7,2.81-2.73,4.29-4,1.14-1,2.56-1.73,3.54-2.92a34.41,34.41,0,0,0,6.74-15.48.71.71,0,0,0-.5-.95A10.72,10.72,0,0,1,89,127.32c-.11-.11-.31-.22,0-.33a37.61,37.61,0,0,0,4.82,2.2,3.87,3.87,0,0,1,1.5.86c1.28,1.14,2.53,2.28,3.87,3.31a4.17,4.17,0,0,0,4,.81,2.15,2.15,0,0,0,.42-.06c2.56-.84,3.59-2.87,4.15-5.29.08-.39-.11-.5-.45-.53s-.67-.39-.84.19c-.11.39-.25.81-.33,1.2a3,3,0,0,1-3.15,2.56c-.78,0-1.5-.31-2.37-.36.81,1.23,2,.92,3.12,1l-.58.39c-2.73.31-3.76-.72-3.34-3.45.28-1.89,1.09-3.7.45-5.9a13.11,13.11,0,0,0,4.57,2,.42.42,0,0,0,.42.17l.39.08a9.81,9.81,0,0,0,2.17.67,18.21,18.21,0,0,0,9.47.31c4.59-1.25,7.21-4.57,8.6-8.86,2.12-6.52,1.14-12.95-1.06-19.27a2,2,0,0,0-1-1.17c-1.09-.81-1.59-.84-2.37.17-1.42,1.81-2.9,3.43-5.21,4.09-.89.25-1.11,1.09-1,1.95.08.7.22,1.36.28,2.06.25,2.81-.53,5.46-1.48,8.3a2.43,2.43,0,0,1,0-1.28,17.27,17.27,0,0,0,.36-5.49c-.17-1-.42-1.17-1.34-.67a4.34,4.34,0,0,0-2,2.78,7.2,7.2,0,0,1-.84,2.23c.31-2-.14-4.18,2.06-5.79a6.19,6.19,0,0,0-2.81,1c-.67.53-.92,1.45-1.56,2.09-.14-.19-.17-.22-.17-.25,1.31-3.29,2.31-3.84,5.85-3.26.19,0,.56.06.5-.17-.14-.47.17-1.23-.75-1.34a14.62,14.62,0,0,0-3.31.08,1.72,1.72,0,0,1,1.25-.58c.58-.11.84-.39.58-.92a.83.83,0,0,0-1.2-.47,3.64,3.64,0,0,0-.64.56c-.08-.64.33-1.48-.64-1.75a19.22,19.22,0,0,0,2.51-.92,5.06,5.06,0,0,1,2.28.56,12.57,12.57,0,0,0-2.81-4.48,6.13,6.13,0,0,0-3.43-2,7.06,7.06,0,0,1-.81-.11c-.19-.47.42-.28.5-.53l-5.29-4.29c-3.4-2.9-7.21-4.26-11.7-3.4-5.35,1.2-10.53,2.76-13.9,7.85h4.46c-.06.17-.19.17-.31.19l-6.79,1.25C73.92,95.58,73.73,95.55,73.67,95.77Zm114.42,20.13c-5.26,0-10.5,0-15.76,0-.84,0-1.14.28-1.31,1.09-.36,2-.81,4-1.31,5.9-.25.92-.11,1.17.89,1.17q12.11,0,24.23,0c2.84,0,4,1.39,3.51,4.15-.11.72-.36,1-1.2,1-7.1-.06-14.2,0-21.3,0a9.29,9.29,0,0,0-9.05,7.21c-.53,2.31-1.11,4.59-1.56,6.91A6,6,0,0,0,166,148c1.31,2,3.26,2.48,5.43,2.48q15.25,0,30.49,0c1,0,1.31-.33,1.48-1.2,1.92-8.77,3.87-17.52,5.76-26.26.89-4-1.67-7.13-5.82-7.13Zm160,34.78c3.17,0,6.32,0,9.5,0a9.36,9.36,0,0,0,8.88-6.93c1.59-6.79,3.09-13.62,4.57-20.44.86-4-1.53-7.07-5.49-7.07-9.86-.06-19.69,0-29.55,0-.56,0-.78.14-.89.72-.45,2.2-1,4.4-1.45,6.63q-4.18,18.92-8.41,37.84c-.17.81,0,.95.78.95,2.56,0,5.15-.06,7.71,0a1,1,0,0,0,1.23-1c.67-3.23,1.42-6.43,2.09-9.66a1,1,0,0,1,1.23-1C341.56,150.74,344.81,150.69,348.1,150.69Zm-121.33-.22h14.81c.64,0,.95-.14,1.11-.86q4.89-22.26,9.89-44.55c.17-.7-.06-.75-.64-.72-2.67,0-5.35,0-8,0-.7,0-.95.22-1.09.89-.67,3.23-1.42,6.43-2.09,9.66-.17.84-.5,1.09-1.36,1.09-6.29-.06-12.59,0-18.91,0a9.28,9.28,0,0,0-8.88,5.93,32.89,32.89,0,0,0-1,4c-1.31,5.88-2.67,11.72-3.87,17.6-.84,4.12,1.67,6.93,5.85,6.93C217.3,150.46,222,150.46,226.77,150.46Zm37.48.25h12.11a9.52,9.52,0,0,0,9.36-7.55l4.34-19.52c.95-4.29-1.45-7.46-5.85-7.49-8.19-.06-16.35-.06-24.53,0a9.23,9.23,0,0,0-9,7.1c-1.64,7-3.15,14-4.68,20.94a5.34,5.34,0,0,0,.64,3.73c1.17,2.09,3.12,2.78,5.35,2.81Zm41.46,0c4.09,0,8.21,0,12.31,0a9.52,9.52,0,0,0,9.16-7.41c1.45-6.52,2.87-13,4.32-19.52,1-4.48-1.42-7.6-6-7.63-8,0-16.07,0-24.12,0a9.38,9.38,0,0,0-9.25,7.27c-1.06,4.43-2,8.88-3,13.31-.53,2.37-1.06,4.73-1.59,7.13-.84,3.73,1.78,6.82,5.9,6.85S301.65,150.71,305.72,150.71ZM147.27,124.34c2.2,0,4.37,0,6.57,0a2.93,2.93,0,0,1,3,3.81c-1.56,7.13-3.12,14.26-4.73,21.36-.17.72-.11.95.7.95q4-.08,7.94,0c.7,0,.92-.25,1.06-.92q2.84-12.91,5.74-25.81a7,7,0,0,0,0-3.7c-.78-2.48-2.78-3.81-5.79-3.81-6.32,0-12.67,0-19,0-.95,0-1.23-.14-1-1.17.78-3.23,1.48-6.52,2.23-9.75.17-.72.14-1-.78-1-2.56.08-5.15.06-7.71,0-.84,0-1.09.28-1.25,1.06-1.23,5.71-2.48,11.39-3.73,17.1q-3,13.53-6,27c-.17.72-.06,1,.75,1,2.53-.06,5.07-.08,7.63,0,.95,0,1.23-.33,1.39-1.17,1.78-8.08,3.59-16.12,5.37-24.2.14-.61.36-.78.95-.78C142.81,124.37,145,124.34,147.27,124.34ZM93.36,134.56c-.22.7-.47,1.42-.7,2.17a29.33,29.33,0,0,1-5.57,10.64c-.17.19-.53.36-.47.64s.53.28.81.33a45.31,45.31,0,0,0,6.15.22c1.7,0,2.62-1.62,1.92-3.37a4.5,4.5,0,0,1-.33-1.7C95.17,140.41,94.95,137.38,93.36,134.56ZM42.29,110.2a1.24,1.24,0,0,0-.47-1.23C41.23,109.7,41.62,110,42.29,110.2Z"/><path class="cls-3" d="M33,113.59c-.5-3.15.39-5.68,3.26-7.32A13.73,13.73,0,0,0,33,113.59Z"/><path class="cls-3" d="M74,89.73c.31-3,2.45-5,5.93-5.57A13.49,13.49,0,0,0,74,89.73Z"/><path class="cls-3" d="M74.2,86.53a2.67,2.67,0,0,1,2.48-2.17A26.1,26.1,0,0,0,74.2,86.53Z"/><path class="cls-3" d="M33.68,107.44a10.68,10.68,0,0,0-1.48,2.84C31.65,109.42,32.24,108.16,33.68,107.44Z"/><path class="cls-4" d="M210.31,114.18a.19.19,0,0,1-.25.17A1.31,1.31,0,0,0,210.31,114.18Z"/><path class="cls-5" d="M90.6,86.28a13.35,13.35,0,0,1,11.7,3.4c0,.5.45.67.64,1,.72,1.31,2.76,2.17,1.42,4.29.89-.61,1.92.11,2.73-.47a7.06,7.06,0,0,1,.81.11c.08.42.5.45.78.61a7,7,0,0,1,3.2,5.26,14.3,14.3,0,0,1-2.51.92c-.58,0-.84.22-.39.72a2.53,2.53,0,0,1,.61,1.67.69.69,0,0,0,.42.75,14.67,14.67,0,0,1,3.31-.08c.95.11.61.86.75,1.34.06.22-.31.19-.5.17-3.54-.58-4.51,0-5.85,3.26,0,0,0,.06.17.25.61-.64.86-1.56,1.56-2.09a6.32,6.32,0,0,1,2.81-1c-2.2,1.62-1.75,3.81-2.06,5.79a6.56,6.56,0,0,0,.84-2.23,4.41,4.41,0,0,1,2-2.78c.92-.47,1.17-.31,1.34.67a17.27,17.27,0,0,1-.36,5.49,2.43,2.43,0,0,0,0,1.28c.95-2.84,1.73-5.46,1.48-8.3-.06-.7-.19-1.36-.28-2.06-.11-.89.08-1.7,1-1.95,2.34-.64,3.81-2.28,5.21-4.09.78-1,1.28-1,2.37-.17a2,2,0,0,0,.08.81,44.61,44.61,0,0,1,1.5,7.82,29.34,29.34,0,0,1-1.06,10.89c-1.48,4.73-4.4,8.08-9.5,9a23.26,23.26,0,0,1-8.55-.28c-.28-.06-.53-.19-.72.14l-.39-.08c-.06-.28-.14-.47-.42-.17a13.33,13.33,0,0,1-4.57-2c.61,2.17-.17,4-.45,5.9-.42,2.73.64,3.76,3.34,3.45v.84a4.11,4.11,0,0,1-4-.81c-1.34-1-2.62-2.2-3.87-3.31a3.72,3.72,0,0,0-1.5-.86,34.14,34.14,0,0,1-4.82-2.2c-.08-.45-.47-.47-.84-.7a5.37,5.37,0,0,0,1.09,3,3.13,3.13,0,0,1,.53,2.48,62.07,62.07,0,0,1-2.23,7.69,10.52,10.52,0,0,1-2.48,4c-1.36,1.23-2.7,2.48-4.07,3.7a3.87,3.87,0,0,1-3.54.92c-.78-.14-1,.11-1.31.7-1,1.89-2.56,2.28-4.43,1.2a3.2,3.2,0,0,0-.47-.17c-.25-.42-.56-.78-.78-1.23-1.2-2.42-1-3,1.28-4.37q.79-.46,1.59-1c1.09-.7,1.09-.7,1.95.22-.06-.92-.14-1.78-.11-2.62a10.16,10.16,0,0,1,.19-2.59c-.06-.72.45-1.31.47-2,.08-.08.28-.11.08-.28,0,.08-.06.17-.08.28-.36,0-.53.28-.7.53a6.19,6.19,0,0,1-4.09,3,48,48,0,0,1-7.71.81c-.22-1-.45-2-.7-3-.08-.39-.14-.78-.22-1.17-.28,1.23-.42,2.42-.58,3.59-.45,3.29-1.7,6.1-4.79,7.66a1.69,1.69,0,0,0-1.06,1.84c.06,1.56-.67,2.26-2.26,2.37-.42,0-.92-.17-1.28.22a7.86,7.86,0,0,1-3-1,1.64,1.64,0,0,1-.78-2.23,28.9,28.9,0,0,0,1.42-5.54,2.26,2.26,0,0,0-.36-1.84,33.82,33.82,0,0,1-4-7.66c-.17-1.34-.36-2.67-.5-4a24.09,24.09,0,0,1,.22-8.24c1.89-7.52,7-11.78,14.26-13.78-.72,1.36-1.42,2.73-2.14,4.09-.25.5-.47,1-.72,1.48a4.79,4.79,0,0,0,.61,5.24c-.25,2.92,1.5,5,3,7.21-.72,1.84-.08,3.2,1.42,4.37.81.64,1.59,1.31,2.45,1.89,1.53,1.92,3.65,2.09,5.82,1.75a29,29,0,0,0,6.1-2c2.45-.95,4.9-1.95,7.6-1.84.5,0,.7-.25.95-.64,1.59-2.53,1.39-5.32,1-8.08a126.83,126.83,0,0,0-3-13.64c-.08-.28.06-.75-.45-.84-.06-.64-.11-1.28-.19-1.95a13.94,13.94,0,0,0-.75,4.51,45.28,45.28,0,0,0,.75,7.24c.36,2.92.45,5.82-.75,8.6-.17.36-.22.78-.78.84-2.92.36-5.46,1.75-8,3.15a12.68,12.68,0,0,1-4.15,1.87c-2.87.39-4.87-1.06-6.43-3.2-.53-.72-.11-1.7.19-2.48a39.54,39.54,0,0,1,3.06-5.9c.33-.58.64-1.14.95-1.73l.25-.36.08-.22c-.11-.06-.17,0-.19.11a3.18,3.18,0,0,0-.31.31,43.36,43.36,0,0,0-4,5,16.49,16.49,0,0,0-2.2-3.68,9.94,9.94,0,0,1,1.56-4.57c1.11-1.73,2.14-3.48,3.2-5.24,2.31-3.87,4.34-7.88,7.38-11.28.58-.64,1.45-1.09,1.64-2.06v0a.37.37,0,0,0,.42-.19l6.79-1.25c.14,0,.28,0,.31-.19a5.27,5.27,0,0,1,4.43,1.39c.22.19.42.47.75.5a.47.47,0,0,0,.25.39s0,.06,0,.08a.09.09,0,0,1,.06,0,.38.38,0,0,0-.11-.08.46.46,0,0,0-.17-.45,18.61,18.61,0,0,1-.92-2.65c-.5-3-.14-4.76,2.65-6C89,87,89.93,86.94,90.6,86.28Zm10,16.79h-.19A6.67,6.67,0,0,0,94.92,106a19.4,19.4,0,0,1-1.36,1.64c-.06.19-.39.22-.33.47a.23.23,0,0,0,.33.14c.81-.42,1.09.14,1.39.7a2.32,2.32,0,0,0,1.34,1.23c.14.39.36.19.56,0l1.17-1a17.39,17.39,0,0,1,5.65-3.15,2.36,2.36,0,0,0-.58,0l-.92.11a2.79,2.79,0,0,0-.95-2c-.33-.28-.67-.56-.58-1.06a1.4,1.4,0,0,0,.36-.14l-.08-.14ZM71,106.66c-.72.72-.64,1.75-1,2.59L68,113.51c-.08.08-.28.11-.08.28,0-.08.06-.17.08-.28a1.21,1.21,0,0,0,.47-.19,30.12,30.12,0,0,0,4.37-7,6.06,6.06,0,0,1,.61-1.2.94.94,0,0,1,1.14-.28c.42.11.28.5.31.78l.25,2.09c.7-4.79,3.43-7.94,7.85-9.77-.86-.7-1.56-.25-2.28,0a36.71,36.71,0,0,0-3.93.19,4,4,0,0,0-3.59,2.23,35.16,35.16,0,0,0-2.45,6.13C70.78,106.49,70.91,106.6,71,106.66Zm52.27-8.19c-1.95,2.45-3.7,4.68-6.88,4.57C118.67,104.4,122,102.37,123.24,98.47Zm-28.9-.7c-2.92.56-4.18,2.37-3.59,5.15A8.11,8.11,0,0,1,94.33,97.78ZM98,125.51c.36-1.95,1.95-2.56,3.4-3.31C98.18,122.84,98.18,122.84,98,125.51Z"/><path class="cls-6" d="M188.09,115.91h15.23c4.15,0,6.68,3.09,5.82,7.13-1.89,8.77-3.87,17.52-5.76,26.26-.19.86-.5,1.23-1.48,1.2-10.16-.06-20.33,0-30.49,0-2.17,0-4.15-.5-5.43-2.48a6,6,0,0,1-.72-4.71c.47-2.31,1-4.62,1.56-6.91a9.31,9.31,0,0,1,9.05-7.21c7.1,0,14.2,0,21.3,0,.84,0,1.06-.31,1.2-1,.5-2.76-.67-4.15-3.51-4.15-8.08,0-16.15,0-24.23,0-1,0-1.14-.25-.89-1.17.5-1.95.92-3.93,1.31-5.9.14-.81.47-1.09,1.31-1.09Zm-.7,21.39h-8.13a3.12,3.12,0,0,0-2.92,1.84,2,2,0,0,0,1.78,3.15c5.46.06,10.92,0,16.37,0a.71.71,0,0,0,.81-.7c.22-1.11.47-2.26.78-3.34.22-.75.08-1-.78-1C192.69,137.35,190,137.29,187.4,137.29Z"/><path class="cls-6" d="M348.1,150.69c-3.26,0-6.54,0-9.8,0-.78,0-1.06.22-1.23,1-.67,3.23-1.42,6.43-2.09,9.66-.17.75-.45,1-1.23,1-2.56-.06-5.15,0-7.71,0-.75,0-.95-.14-.78-.95q4.22-18.92,8.41-37.84c.5-2.2,1-4.4,1.45-6.63.11-.56.33-.72.89-.72,9.86,0,19.69,0,29.55,0,4,0,6.35,3.09,5.49,7.07q-2.17,10.23-4.57,20.44a9.36,9.36,0,0,1-8.88,6.93C354.42,150.71,351.25,150.69,348.1,150.69Zm-1.45-8.13h6.46a4.78,4.78,0,0,0,4.65-3.51c.89-3.65,1.73-7.3,2.45-11,.47-2.37-.81-3.73-3.23-3.73-4.32,0-8.63,0-12.92,0-.67,0-1,.17-1.11.84-1.2,5.51-2.42,11.06-3.68,16.57-.19.81.08.84.72.84Z"/><path class="cls-6" d="M226.77,150.46h-14.2c-4.18,0-6.66-2.84-5.85-6.93,1.17-5.88,2.56-11.75,3.87-17.6a31.68,31.68,0,0,1,1-4,9.29,9.29,0,0,1,8.88-5.93c6.29,0,12.59,0,18.91,0,.86,0,1.2-.25,1.36-1.09.67-3.23,1.42-6.43,2.09-9.66.14-.67.36-.89,1.09-.89,2.67.06,5.35,0,8,0,.56,0,.78.06.64.72q-5,22.26-9.89,44.55c-.17.72-.45.86-1.11.86C236.66,150.44,231.7,150.46,226.77,150.46Zm11.89-26.37a3.1,3.1,0,0,0-.36-.08c-4.62,0-9.25,0-13.9,0a4.81,4.81,0,0,0-4.51,3.84c-.81,3.51-1.59,7-2.34,10.58-.5,2.37.72,3.84,3.17,3.87,4.34,0,8.69,0,13.06,0,.67,0,.89-.22,1-.84.39-1.95.86-3.87,1.28-5.79C236.94,131.83,237.8,128,238.66,124.09Z"/><path class="cls-6" d="M264.25,150.71c-4.07,0-8.13,0-12.2,0-2.23,0-4.18-.7-5.35-2.81a5.2,5.2,0,0,1-.64-3.73c1.53-7,3-14,4.68-20.94a9.21,9.21,0,0,1,9-7.1c8.19-.06,16.35-.06,24.53,0,4.4,0,6.79,3.2,5.85,7.49l-4.34,19.52a9.44,9.44,0,0,1-9.36,7.55C272.33,150.74,268.29,150.71,264.25,150.71Zm1.87-8.13h5.74a4.84,4.84,0,0,0,5.12-4c.84-3.48,1.59-7,2.34-10.47.47-2.26-.81-3.81-3.15-3.81H264.28a4.74,4.74,0,0,0-4.87,3.62c-.92,3.68-1.73,7.38-2.45,11.08a2.88,2.88,0,0,0,3,3.56Z"/><path class="cls-6" d="M305.72,150.71c-4.07,0-8.13,0-12.2,0s-6.74-3.12-5.9-6.85c.53-2.37,1.06-4.73,1.59-7.13,1-4.43,1.92-8.88,3-13.31a9.32,9.32,0,0,1,9.25-7.27c8,0,16.07,0,24.12,0,4.57,0,7,3.15,6,7.63-1.45,6.52-2.87,13-4.32,19.52a9.55,9.55,0,0,1-9.16,7.41C313.93,150.74,309.84,150.71,305.72,150.71Zm6-26.4h-5.93a4.86,4.86,0,0,0-5,3.81c-.84,3.51-1.62,7-2.37,10.55-.5,2.39.81,3.9,3.26,3.9H313.6a4.93,4.93,0,0,0,4.85-3.81c.81-3.59,1.62-7.18,2.37-10.78a2.9,2.9,0,0,0-3-3.68C315.8,124.29,313.74,124.31,311.7,124.31Z"/><path class="cls-6" d="M147.27,124.34c-2.23,0-4.46,0-6.68,0-.58,0-.81.17-.95.78-1.78,8.08-3.59,16.12-5.37,24.2-.19.84-.45,1.2-1.39,1.17-2.53-.08-5.07-.06-7.63,0-.81,0-.92-.25-.75-1,2-9,4-18,6-27,1.25-5.71,2.51-11.39,3.73-17.1.17-.78.42-1.09,1.25-1.06,2.56.06,5.15.06,7.71,0,.92,0,.95.28.78,1-.75,3.26-1.42,6.52-2.23,9.75-.25,1,0,1.17,1,1.17,6.32,0,12.67,0,19,0,3,0,5,1.34,5.79,3.81a7,7,0,0,1,0,3.7q-2.88,12.91-5.74,25.81c-.14.67-.36.92-1.06.92-2.65,0-5.29-.06-7.94,0-.81,0-.86-.22-.7-.95q2.38-10.65,4.73-21.36a2.93,2.93,0,0,0-3-3.81Z"/><path class="cls-7" d="M59.69,107.83c-7.24,2-12.36,6.27-14.26,13.78a23.41,23.41,0,0,0-.22,8.24c.14,1.34.33,2.67.5,4-4.57-10.61-1.73-21.72,7.71-28.46,3.54-2.53,7.57-3.65,12.06-4.29-1.34,1.59-2.51,3-3.73,4.4A18.21,18.21,0,0,1,59.69,107.83Z"/><path class="cls-2" d="M71.17,149.88a2.37,2.37,0,0,1,.47.17c1.84,1.09,3.43.7,4.43-1.2.31-.58.53-.84,1.31-.7a4,4,0,0,0,3.54-.92c1.36-1.23,2.7-2.48,4.07-3.7a9.53,9.53,0,0,0,2.48-4,67.29,67.29,0,0,0,2.23-7.69,3,3,0,0,0-.53-2.48,5.17,5.17,0,0,1-1.09-3c.39.22.75.25.84.7-.28.14-.11.22,0,.33a11.18,11.18,0,0,0,3.37,2.42.71.71,0,0,1,.5.95,33.82,33.82,0,0,1-6.74,15.48,25.63,25.63,0,0,1-3.54,2.92c-1.48,1.28-3.15,2.34-4.29,4a2.85,2.85,0,0,1-4.32.42A11.72,11.72,0,0,1,71.17,149.88Z"/><path class="cls-2" d="M82.3,106.83c.5.08.36.56.45.84a135.58,135.58,0,0,1,3,13.64c.42,2.76.61,5.51-1,8.08-.25.39-.42.67-.95.64-2.7-.08-5.15.92-7.6,1.84a30.08,30.08,0,0,1-6.1,2c-2.17.33-4.29.17-5.82-1.75a8.32,8.32,0,0,0,7.66-.75c2.7-1.56,5.37-3.37,8.55-3.65,1.89-.17,2.26-1.2,2.65-2.62a23.76,23.76,0,0,0,.06-11.36A43.81,43.81,0,0,1,82.3,106.83Z"/><path class="cls-2" d="M93.36,134.56c1.59,2.81,1.81,5.85,1.78,8.91a4,4,0,0,0,.33,1.7c.7,1.73-.19,3.37-1.92,3.37a45.48,45.48,0,0,1-6.15-.22c-.28,0-.7,0-.81-.33s.31-.42.47-.64a29.1,29.1,0,0,0,5.57-10.64C92.89,136,93.14,135.26,93.36,134.56Z"/><path class="cls-2" d="M105.61,126.32c.19-.33.45-.19.72-.14a22.11,22.11,0,0,0,8.55.28c5.12-.89,8-4.23,9.5-9a29.34,29.34,0,0,0,1.06-10.89,44.61,44.61,0,0,0-1.5-7.82,2,2,0,0,1-.08-.81,2,2,0,0,1,1,1.17c2.17,6.32,3.17,12.75,1.06,19.27-1.39,4.32-4,7.6-8.6,8.86a18.5,18.5,0,0,1-9.47-.31A8.67,8.67,0,0,1,105.61,126.32Z"/><path class="cls-7" d="M73.67,95.74c-.19,1-1.06,1.42-1.64,2.06-3,3.4-5.07,7.44-7.38,11.28-1.06,1.75-2.09,3.54-3.2,5.24a10.39,10.39,0,0,0-1.56,4.57c-.33-.39-.64-.81-1-1.2a3.68,3.68,0,0,1-.39-4,31.71,31.71,0,0,1,6.29-9.11c2.2-2.42,4.23-5,6.57-7.27A5,5,0,0,1,73.67,95.74Z"/><path class="cls-7" d="M90.6,86.28c-.67.67-1.62.7-2.42,1.06-2.78,1.23-3.15,3-2.65,6A14.23,14.23,0,0,0,86.45,96L86.4,96c-.33,0-.53-.28-.75-.5a5.21,5.21,0,0,0-4.43-1.39H76.76C80.1,89,85.26,87.5,90.6,86.28Z"/><path class="cls-2" d="M52.37,152.16c.36-.39.86-.17,1.28-.22,1.59-.11,2.31-.81,2.26-2.37A1.68,1.68,0,0,1,57,147.73c3.12-1.56,4.34-4.37,4.79-7.66.17-1.2.31-2.39.58-3.59.08.39.14.78.22,1.17,0,1.78-.08,3.54-.06,5.32a6.2,6.2,0,0,1-1.11,3.81,6.84,6.84,0,0,0-1.56,4.4c.08,1.56-.53,2-2.09,2A16.32,16.32,0,0,1,52.37,152.16Z"/><path class="cls-5" d="M41.45,142a5.63,5.63,0,0,1-1.39-1.75c-1.25-2.14-1.14-2.92.58-4.65l1.75-1.75c.45.19.45.67.58,1.06a13.5,13.5,0,0,0,2,4.29c.75,1,.25,1.75-.22,2.53s-1.17.47-1.87.36A6.66,6.66,0,0,0,41.45,142Z"/><path class="cls-2" d="M41.45,142a12.59,12.59,0,0,1,1.45.06c.7.11,1.42.39,1.87-.36s1-1.53.22-2.53a14.48,14.48,0,0,1-2-4.29c-.11-.36-.11-.84-.58-1.06.5-.5.58-1.23,1-1.89a40.9,40.9,0,0,0,4.85,10.28.86.86,0,0,1,.11.78,2,2,0,0,1-3,1.59A9.26,9.26,0,0,1,41.45,142Z"/><path class="cls-2" d="M63.26,140.66a48,48,0,0,0,7.71-.81,6.27,6.27,0,0,0,4.09-3c.17-.28.33-.53.7-.53h0c0,.7-.53,1.28-.47,2-.78.39-.78,1.23-1,1.92a1.06,1.06,0,0,1-.89.84,28,28,0,0,1-9.52.08C63.62,141.08,63.23,141.19,63.26,140.66Z"/><path class="cls-2" d="M40.34,110.39c0,1.45.06,2.9-1.09,4.09-.5.53.25,1,.45,1.53a1,1,0,0,0,1.31.58,10.21,10.21,0,0,0,2.62-1.23l0,0c-.19,2.06-.78,2.67-2.53,2.76a2,2,0,0,1-2.37-1.53c-.28-.7-.47-1.45-.72-2.17,0-.39,0-.75,0-1.14A3.08,3.08,0,0,1,40.34,110.39Z"/><path class="cls-2" d="M103.13,134.23v-.84l.58-.39c-1.14-.11-2.34.19-3.12-1,.86.06,1.59.39,2.37.36a3,3,0,0,0,3.15-2.56c.08-.42.22-.81.33-1.2.14-.58.53-.22.84-.19s.53.17.45.53c-.56,2.42-1.62,4.43-4.15,5.29C103.41,134.23,103.27,134.2,103.13,134.23Z"/><path class="cls-2" d="M60.42,125.87c-1.48-2.2-3.23-4.29-3-7.21a32.23,32.23,0,0,1,2.9,4A2.81,2.81,0,0,1,60.42,125.87Z"/><path class="cls-2" d="M111.9,100.48a6.93,6.93,0,0,0-3.2-5.26c-.28-.17-.7-.19-.78-.61a6.13,6.13,0,0,1,3.43,2,12.57,12.57,0,0,1,2.81,4.48A4.69,4.69,0,0,0,111.9,100.48Z"/><path class="cls-2" d="M107.12,94.49c-.84.58-1.84-.11-2.73.47,1.34-2.12-.7-3-1.42-4.29-.19-.33-.67-.53-.64-1L107.62,94C107.53,94.21,106.92,94,107.12,94.49Z"/><path class="cls-5" d="M40.34,110.39a3.14,3.14,0,0,0-2.37,2.9c0,.39,0,.75,0,1.14a2.37,2.37,0,0,1-.31-3,7.4,7.4,0,0,1,3.26-3.4l.08.08C40.76,108.92,40.53,109.67,40.34,110.39Z"/><path class="cls-2" d="M110,104.54c-.36-.11-.39-.42-.42-.75a2.57,2.57,0,0,0-.61-1.67c-.42-.5-.19-.72.39-.72,1,.25.56,1.09.64,1.75a3.64,3.64,0,0,1,.64-.56.8.8,0,0,1,1.2.47c.22.53,0,.81-.58.92A1.64,1.64,0,0,0,110,104.54Z"/><path class="cls-2" d="M42.29,110.2c-.67-.19-1.06-.5-.47-1.23A1.24,1.24,0,0,1,42.29,110.2Z"/><path class="cls-2" d="M104.8,126c.28-.31.36-.11.42.17A.42.42,0,0,1,104.8,126Z"/><path class="cls-7" d="M74.09,95.58a.41.41,0,0,1-.42.19C73.73,95.55,73.92,95.58,74.09,95.58Z"/><path class="cls-5" d="M40.9,108.08c0-.08,0-.17.14-.11a.86.86,0,0,0-.06.19Z"/><path class="cls-2" d="M43.63,115.4c0-.06.08-.08.11-.14a.28.28,0,0,0,0,.08c-.06.11-.11.11-.14.06Z"/><path class="cls-2" d="M68,113.54,70,109.28c.39-.84.28-1.89,1-2.59a22.45,22.45,0,0,0,1.48-3c.72-1.34,1.31-2.78,2.62-3.7l.17.19a4.82,4.82,0,0,0-.17,3.79,9.3,9.3,0,0,1,1.84-4.09,3.13,3.13,0,0,1,1.81-1.23c.7-.19,1.5-.19,2-.84.72-.22,1.42-.67,2.28,0-4.4,1.84-7.16,5-7.85,9.77l-.25-2.09c0-.28.11-.7-.31-.78a1,1,0,0,0-1.14.28,6.06,6.06,0,0,0-.61,1.2,29.22,29.22,0,0,1-4.37,7c-.08.14-.28.14-.45.22Z"/><path class="cls-3" d="M93.53,107.66A18.54,18.54,0,0,0,94.89,106a6.67,6.67,0,0,1,5.51-2.92c-.06.47-.67.42-.84.89a2.88,2.88,0,0,1,1.59,1.78c.17.67.5.58.95.39s.61-.08.92-.11l.58,0A18.48,18.48,0,0,0,98,109.22l-1.17,1c-.17.14-.39.36-.56,0,.56-.61,1.11-1.2,1.62-1.84.19-.25.84-.31.47-.84a1.12,1.12,0,0,0-1.34-.5c-.78.17-.86.86-1.06,1.48a3.5,3.5,0,0,1-.67-1.56C94.64,107.05,94.31,107.83,93.53,107.66Z"/><path class="cls-3" d="M80.77,97.86c-.53.64-1.34.61-2,.84a3,3,0,0,0-1.81,1.23A9.3,9.3,0,0,0,75.09,104a4.82,4.82,0,0,1,.17-3.79c.11-.08.19-.19.06-.31s-.17.06-.25.08c-1.31.92-1.89,2.37-2.62,3.7a19.47,19.47,0,0,1-1.48,3c-.06-.08-.19-.17-.19-.22a35.16,35.16,0,0,1,2.45-6.13,3.94,3.94,0,0,1,3.59-2.23A31.08,31.08,0,0,1,80.77,97.86Z"/><path class="cls-2" d="M93.53,107.66c.75.17,1.11-.61,1.78-.75a3.22,3.22,0,0,0,.67,1.56c.19-.64.28-1.31,1.06-1.48a1.14,1.14,0,0,1,1.34.5c.36.53-.28.61-.47.84-.5.64-1.09,1.23-1.62,1.84a2.32,2.32,0,0,1-1.34-1.23c-.31-.56-.58-1.14-1.39-.7-.11.06-.31.06-.33-.14S93.47,107.86,93.53,107.66Z"/><path class="cls-3" d="M123.24,98.47c-1.23,3.9-4.57,5.9-6.88,4.57C119.53,103.18,121.32,100.92,123.24,98.47Z"/><path class="cls-3" d="M94.33,97.78a8,8,0,0,0-3.59,5.15C90.16,100.14,91.41,98.36,94.33,97.78Z"/><path class="cls-3" d="M98,125.51c.22-2.7.22-2.7,3.4-3.31C99.93,123,98.32,123.56,98,125.51Z"/><path class="cls-2" d="M102.1,106.13c-.45.19-.78.31-.95-.39A3,3,0,0,0,99.57,104c.17-.47.78-.39.84-.89h.19l0,0c-.08.47.22.75.53,1.06A2.79,2.79,0,0,1,102.1,106.13Z"/><path class="cls-2" d="M100.63,103.07a2.63,2.63,0,0,1,.28-.28l.08.14a3.12,3.12,0,0,1-.36.14Z"/><path class="cls-2" d="M68,113.51c0,.08-.06.17-.08.28-.19-.14,0-.19.08-.28Z"/><path class="cls-2" d="M75.79,136.29c0-.08.06-.17.08-.28.17.17,0,.19-.08.28Z"/><path class="cls-3" d="M66.46,117.38l-.25.36-.17-.19a3.18,3.18,0,0,0,.31-.31A.49.49,0,0,1,66.46,117.38Z"/><path class="cls-7" d="M86.45,96a.4.4,0,0,1,.17.45h0c-.17-.06-.22-.22-.25-.39C86.4,96,86.45,96,86.45,96Z"/><path class="cls-3" d="M66.35,117.27c0-.11.08-.19.19-.11l-.08.22A.22.22,0,0,0,66.35,117.27Z"/><path class="cls-7" d="M86.62,96.41a.38.38,0,0,0,.11.08s-.06,0-.06,0,0-.06-.06-.06Z"/><path class="cls-3" d="M187.4,137.29c2.65,0,5.29,0,7.94,0,.86,0,1,.22.78,1-.31,1.11-.56,2.23-.78,3.34-.11.47-.28.7-.81.7-5.46,0-10.92,0-16.37,0a2,2,0,0,1-1.78-3.15,3.15,3.15,0,0,1,2.92-1.84Z"/><path class="cls-3" d="M346.65,142.55c-2.23,0-4.46,0-6.68,0-.64,0-.89,0-.72-.84,1.28-5.51,2.48-11,3.68-16.57.14-.67.42-.86,1.11-.84,4.32,0,8.63,0,12.92,0,2.42,0,3.68,1.36,3.23,3.73-.72,3.68-1.56,7.32-2.45,11a4.79,4.79,0,0,1-4.65,3.51Zm3.7-5.79c.64-2.73,1.25-5.49,1.89-8.21.19-.86-.17-1.25-1-1.23-1.7,0-3.4,0-5.12,0-.5,0-.75.14-.86.64-.81,3.76-1.64,7.52-2.45,11.28-.22.47,0,.58.45.58,1.17,0,2.37,0,3.54,0C349.8,139.8,349.8,139.8,350.36,136.76Z"/><path class="cls-3" d="M238.66,124.09c-.86,3.87-1.7,7.74-2.56,11.58-.42,1.92-.92,3.84-1.28,5.79-.14.64-.33.86-1,.84-4.34,0-8.69,0-13.06,0-2.45,0-3.68-1.5-3.17-3.87.75-3.54,1.53-7.07,2.34-10.58a4.81,4.81,0,0,1,4.51-3.84c4.62-.06,9.25,0,13.9,0A.63.63,0,0,0,238.66,124.09Zm-18.13,14.81c.17.58.67.5,1.09.5,1.5,0,3-.08,4.48,0,1,.08,1.45-.28,1.45-1.25.78-3.45,1.56-6.91,2.37-10.33.14-.64.14-1-.72-.95-1.56.08-3.12,0-4.68,0-1.2,0-1.59.33-1.87,1.5-.42,1.87-.89,3.7-1.23,5.57C221.12,135.65,220.42,137.21,220.53,138.91Z"/><path class="cls-3" d="M266.12,142.58c-2.06,0-4.09,0-6.15,0a2.89,2.89,0,0,1-3-3.56c.75-3.7,1.56-7.41,2.45-11.08a4.74,4.74,0,0,1,4.87-3.62h11.89a3,3,0,0,1,3.15,3.81c-.75,3.48-1.5,7-2.34,10.47a4.84,4.84,0,0,1-5.12,4Zm3.65-7.41c.22-.95.42-1.87.64-2.81a29.06,29.06,0,0,0,.89-4c.11-.67-.11-1.09-.86-1.09-2.28,0-4.57,0-6.88,0a1.24,1.24,0,0,0-1.36,1c-.39,1.81-.78,3.65-1.17,5.49a12.35,12.35,0,0,0-.64,2.84c-.14.61-.28,1.2-.45,1.81-.25.86.06,1.25.95,1.25,2.23,0,4.43,0,6.66,0a1.41,1.41,0,0,0,1.56-1.23C269.32,137.35,269.54,136.26,269.77,135.18Z"/><path class="cls-3" d="M307.6,142.58c-2.06,0-4.09,0-6.15,0a2.89,2.89,0,0,1-3-3.56c.75-3.7,1.56-7.41,2.45-11.08a4.74,4.74,0,0,1,4.87-3.62h11.89a3,3,0,0,1,3.15,3.81c-.75,3.48-1.5,7-2.34,10.47a4.84,4.84,0,0,1-5.12,4Zm3.65-7.41c.22-.95.42-1.87.64-2.81a29.06,29.06,0,0,0,.89-4c.11-.67-.11-1.09-.86-1.09-2.28,0-4.57,0-6.88,0a1.24,1.24,0,0,0-1.36,1c-.39,1.81-.78,3.65-1.17,5.49a12.35,12.35,0,0,0-.64,2.84c-.14.61-.28,1.2-.45,1.81-.25.86.06,1.25.95,1.25,2.23,0,4.43,0,6.66,0a1.41,1.41,0,0,0,1.56-1.23C310.81,137.35,311,136.26,311.25,135.18Z"/><path class="cls-2" d="M75,100c.08,0,.22-.11.25-.08s.06.22-.06.31A1.39,1.39,0,0,1,75,100Z"/><path class="cls-8" d="M91.76,58.94H87.54V47.36H75.69V58.94h-4.2V33.24h4.2V43.75H87.54V33.24h4.22Z"/><path class="cls-8" d="M119,45.84q0,6.36-3.53,9.73t-10.18,3.37H98.06V33.24H106q6.13,0,9.54,3.3T119,45.84Zm-4.43.14q0-9.23-8.63-9.23h-3.64V55.41h3Q114.53,55.41,114.53,46Z"/><path class="cls-8" d="M128.15,58.94H124V33.24h14.5v3.55H128.15v8h9.69v3.57h-9.69Z"/><path class="cls-8" d="M157.92,52a6.47,6.47,0,0,1-2.48,5.38,10.79,10.79,0,0,1-6.84,2,16.32,16.32,0,0,1-7.14-1.35V54a19.4,19.4,0,0,0,3.74,1.3,15.84,15.84,0,0,0,3.68.47,5.86,5.86,0,0,0,3.68-.95,3.1,3.1,0,0,0,1.19-2.55,3.19,3.19,0,0,0-1.09-2.44,16.41,16.41,0,0,0-4.5-2.37,11.9,11.9,0,0,1-5-3.25,6.88,6.88,0,0,1-1.44-4.39,6.15,6.15,0,0,1,2.29-5.06,9.48,9.48,0,0,1,6.13-1.85,18,18,0,0,1,7.35,1.62l-1.34,3.43a16.05,16.05,0,0,0-6.12-1.44,4.69,4.69,0,0,0-3.09.89,2.92,2.92,0,0,0-1.05,2.35,3.3,3.3,0,0,0,.42,1.71,4.31,4.31,0,0,0,1.39,1.34,23.49,23.49,0,0,0,3.48,1.67,19,19,0,0,1,4.15,2.2,6.46,6.46,0,0,1,1.93,2.3A6.93,6.93,0,0,1,157.92,52Z"/><path class="cls-8" d="M495.84,56.89h-2.22V50.81H487.4v6.09h-2.21V43.39h2.21v5.53h6.23V43.39h2.22Z"/><path class="cls-8" d="M505.41,56.89,505,55.47h-.07a4.19,4.19,0,0,1-1.49,1.27,4.71,4.71,0,0,1-1.92.34,3.25,3.25,0,0,1-2.35-.81,3,3,0,0,1-.84-2.3,2.7,2.7,0,0,1,1.17-2.38A6.77,6.77,0,0,1,503,50.7l1.76-.06V50.1a2.07,2.07,0,0,0-.46-1.46,1.87,1.87,0,0,0-1.42-.49,4.91,4.91,0,0,0-1.51.23,11.4,11.4,0,0,0-1.39.55l-.7-1.55a7.54,7.54,0,0,1,1.82-.66,8.38,8.38,0,0,1,1.87-.23,4.42,4.42,0,0,1,2.94.85A3.33,3.33,0,0,1,507,50v6.88Zm-3.23-1.48a2.69,2.69,0,0,0,1.9-.66,2.39,2.39,0,0,0,.72-1.85V52l-1.31.06a4.49,4.49,0,0,0-2.23.51,1.56,1.56,0,0,0-.7,1.4A1.36,1.36,0,0,0,501,55,1.74,1.74,0,0,0,502.18,55.42Z"/><path class="cls-8" d="M513.38,57.08a3.56,3.56,0,0,1-3-1.39,6.23,6.23,0,0,1-1.07-3.89,6.25,6.25,0,0,1,1.09-3.91,3.59,3.59,0,0,1,3-1.4A3.52,3.52,0,0,1,516.49,48h.11a12.89,12.89,0,0,1-.16-1.74V42.52h2.18V56.89h-1.7l-.38-1.34h-.1A3.47,3.47,0,0,1,513.38,57.08Zm.58-1.76a2.36,2.36,0,0,0,1.95-.75,4,4,0,0,0,.63-2.44v-.3a4.58,4.58,0,0,0-.63-2.74,2.33,2.33,0,0,0-2-.81,2,2,0,0,0-1.76.93,4.76,4.76,0,0,0-.62,2.65,4.64,4.64,0,0,0,.6,2.59A2,2,0,0,0,514,55.32Z"/><path class="cls-8" d="M530.7,51.77a5.58,5.58,0,0,1-1.29,3.91,4.6,4.6,0,0,1-3.58,1.4,4.9,4.9,0,0,1-2.53-.65,4.26,4.26,0,0,1-1.69-1.86,6.32,6.32,0,0,1-.59-2.81,5.54,5.54,0,0,1,1.28-3.88,4.62,4.62,0,0,1,3.59-1.4,4.5,4.5,0,0,1,3.51,1.43A5.51,5.51,0,0,1,530.7,51.77Zm-7.44,0q0,3.54,2.62,3.54t2.59-3.54q0-3.5-2.61-3.5a2.22,2.22,0,0,0-2,.91A4.6,4.6,0,0,0,523.26,51.77Z"/><path class="cls-8" d="M542.21,51.77a5.58,5.58,0,0,1-1.29,3.91,4.6,4.6,0,0,1-3.58,1.4,4.9,4.9,0,0,1-2.53-.65,4.26,4.26,0,0,1-1.69-1.86,6.32,6.32,0,0,1-.59-2.81,5.54,5.54,0,0,1,1.28-3.88,4.62,4.62,0,0,1,3.59-1.4,4.5,4.5,0,0,1,3.51,1.43A5.51,5.51,0,0,1,542.21,51.77Zm-7.44,0q0,3.54,2.62,3.54T540,51.77q0-3.5-2.61-3.5a2.22,2.22,0,0,0-2,.91A4.6,4.6,0,0,0,534.77,51.77Z"/><path class="cls-8" d="M549.79,57.08a3.58,3.58,0,0,1-3-1.4h-.13q.13,1.29.13,1.57v4.19h-2.17V46.68h1.75q.07.29.31,1.37h.11a3.4,3.4,0,0,1,3-1.55,3.55,3.55,0,0,1,3,1.39,6.25,6.25,0,0,1,1.07,3.89,6.25,6.25,0,0,1-1.09,3.91A3.58,3.58,0,0,1,549.79,57.08Zm-.53-8.81a2.26,2.26,0,0,0-1.89.76,3.93,3.93,0,0,0-.6,2.42v.32a4.78,4.78,0,0,0,.59,2.7,2.2,2.2,0,0,0,1.93.84,2,2,0,0,0,1.74-.92,4.77,4.77,0,0,0,.61-2.63,4.6,4.6,0,0,0-.6-2.6A2,2,0,0,0,549.27,48.26Z"/><path class="cls-8" d="M567.29,45.09a3.64,3.64,0,0,0-3,1.35,5.77,5.77,0,0,0-1.09,3.72,5.8,5.8,0,0,0,1,3.76,3.7,3.7,0,0,0,3,1.27A8,8,0,0,0,569,55q.8-.17,1.67-.44v1.89a10.13,10.13,0,0,1-3.6.6,5.76,5.76,0,0,1-4.56-1.8,7.52,7.52,0,0,1-1.59-5.14,8.31,8.31,0,0,1,.77-3.69A5.51,5.51,0,0,1,563.88,44a6.76,6.76,0,0,1,3.43-.84,8.5,8.5,0,0,1,3.83.87l-.79,1.84a11.93,11.93,0,0,0-1.45-.57A5.22,5.22,0,0,0,567.29,45.09Z"/><path class="cls-8" d="M582.09,51.77a5.58,5.58,0,0,1-1.29,3.91,4.6,4.6,0,0,1-3.58,1.4,4.9,4.9,0,0,1-2.53-.65A4.26,4.26,0,0,1,573,54.58a6.32,6.32,0,0,1-.59-2.81,5.54,5.54,0,0,1,1.28-3.88,4.62,4.62,0,0,1,3.59-1.4,4.5,4.5,0,0,1,3.51,1.43A5.51,5.51,0,0,1,582.09,51.77Zm-7.44,0q0,3.54,2.62,3.54t2.59-3.54q0-3.5-2.61-3.5a2.22,2.22,0,0,0-2,.91A4.6,4.6,0,0,0,574.66,51.77Z"/><path class="cls-8" d="M593.1,56.89h-2.18v-6.3a2.86,2.86,0,0,0-.44-1.75,1.64,1.64,0,0,0-1.39-.58,2.11,2.11,0,0,0-1.84.82,4.79,4.79,0,0,0-.59,2.72v5.09h-2.17V46.68h1.7l.3,1.34h.11a2.83,2.83,0,0,1,1.23-1.13,4,4,0,0,1,1.78-.4,3.11,3.11,0,0,1,3.12,1.61h.15a3.12,3.12,0,0,1,1.28-1.18,4,4,0,0,1,1.88-.43,3.43,3.43,0,0,1,2.67.92,4.09,4.09,0,0,1,.84,2.82v6.66h-2.17v-6.3a2.84,2.84,0,0,0-.45-1.75,1.65,1.65,0,0,0-1.39-.58,2.16,2.16,0,0,0-1.85.79,4.07,4.07,0,0,0-.59,2.43Z"/><path class="cls-8" d="M611,56.89h-2.18v-6.3a2.86,2.86,0,0,0-.44-1.75,1.64,1.64,0,0,0-1.39-.58,2.11,2.11,0,0,0-1.84.82,4.79,4.79,0,0,0-.59,2.72v5.09h-2.17V46.68h1.7l.3,1.34h.11a2.83,2.83,0,0,1,1.23-1.13,4,4,0,0,1,1.78-.4,3.11,3.11,0,0,1,3.12,1.61h.15a3.12,3.12,0,0,1,1.28-1.18,4,4,0,0,1,1.88-.43,3.43,3.43,0,0,1,2.67.92,4.09,4.09,0,0,1,.84,2.82v6.66h-2.17v-6.3a2.84,2.84,0,0,0-.45-1.75,1.65,1.65,0,0,0-1.39-.58,2.16,2.16,0,0,0-1.85.79,4.07,4.07,0,0,0-.59,2.43Z"/><path class="cls-8" d="M629.49,51.77a5.58,5.58,0,0,1-1.29,3.91,4.6,4.6,0,0,1-3.58,1.4,4.9,4.9,0,0,1-2.53-.65,4.26,4.26,0,0,1-1.69-1.86,6.32,6.32,0,0,1-.59-2.81,5.54,5.54,0,0,1,1.28-3.88,4.62,4.62,0,0,1,3.59-1.4,4.5,4.5,0,0,1,3.51,1.43A5.51,5.51,0,0,1,629.49,51.77Zm-7.44,0q0,3.54,2.62,3.54t2.59-3.54q0-3.5-2.61-3.5a2.22,2.22,0,0,0-2,.91A4.6,4.6,0,0,0,622.06,51.77Z"/><path class="cls-8" d="M640.88,56.89H638.7V50.61a2.75,2.75,0,0,0-.48-1.76,1.84,1.84,0,0,0-1.51-.58,2.4,2.4,0,0,0-2,.81,4.49,4.49,0,0,0-.64,2.73v5.09h-2.17V46.68h1.7l.3,1.34H634a3,3,0,0,1,1.31-1.13,4.39,4.39,0,0,1,1.88-.4q3.68,0,3.68,3.74Z"/><path class="cls-8" d="M85.64,234.42l-1.1-3.06H80.33l-1.08,3.06h-1.9l4.12-11.06h2l4.12,11.06Zm-1.57-4.61-1-3q-.11-.3-.31-.95t-.28-.95a16.87,16.87,0,0,1-.59,2l-1,2.87Z"/><path class="cls-8" d="M93.22,234.57a2.92,2.92,0,0,1-2.46-1.14h-.11q.11,1.05.11,1.28v3.41H89v-12h1.43q.06.23.25,1.11h.09a2.77,2.77,0,0,1,2.49-1.27,2.89,2.89,0,0,1,2.43,1.13,6.2,6.2,0,0,1,0,6.36A2.92,2.92,0,0,1,93.22,234.57Zm-.43-7.19a1.84,1.84,0,0,0-1.54.62,3.2,3.2,0,0,0-.49,2v.26a3.9,3.9,0,0,0,.48,2.2,1.79,1.79,0,0,0,1.57.68,1.6,1.6,0,0,0,1.42-.75,3.89,3.89,0,0,0,.5-2.15,3.75,3.75,0,0,0-.49-2.12A1.65,1.65,0,0,0,92.79,227.38Z"/><path class="cls-8" d="M103.78,234.42l-.35-1.16h-.06a3.41,3.41,0,0,1-1.21,1,3.83,3.83,0,0,1-1.57.28,2.65,2.65,0,0,1-1.92-.66A2.48,2.48,0,0,1,98,232a2.2,2.2,0,0,1,1-1.94,5.52,5.52,0,0,1,2.92-.72l1.44,0v-.44a1.68,1.68,0,0,0-.37-1.19,1.52,1.52,0,0,0-1.16-.4,4,4,0,0,0-1.23.19,9.33,9.33,0,0,0-1.13.44l-.57-1.27a6.18,6.18,0,0,1,1.48-.54,6.85,6.85,0,0,1,1.52-.18,3.6,3.6,0,0,1,2.4.69,2.71,2.71,0,0,1,.81,2.18v5.61Zm-2.64-1.21a2.19,2.19,0,0,0,1.55-.54,2,2,0,0,0,.58-1.51v-.72l-1.07,0a3.66,3.66,0,0,0-1.82.42,1.27,1.27,0,0,0-.57,1.14,1.11,1.11,0,0,0,.33.86A1.43,1.43,0,0,0,101.15,233.21Z"/><path class="cls-8" d="M110.84,234.57a3.65,3.65,0,0,1-2.87-1.1,5.6,5.6,0,0,1,0-6.4,3.82,3.82,0,0,1,3-1.13,5.57,5.57,0,0,1,2.37.49l-.54,1.42a5.37,5.37,0,0,0-1.85-.44q-2.16,0-2.16,2.87a3.43,3.43,0,0,0,.54,2.1,1.86,1.86,0,0,0,1.58.7,4.53,4.53,0,0,0,2.24-.59V234a3.49,3.49,0,0,1-1,.4A6.1,6.1,0,0,1,110.84,234.57Z"/><path class="cls-8" d="M122.34,234.42h-1.78V229.3a2.24,2.24,0,0,0-.39-1.44,1.5,1.5,0,0,0-1.23-.47,2,2,0,0,0-1.64.67,3.67,3.67,0,0,0-.52,2.23v4.14H115V222.7h1.77v3a13.93,13.93,0,0,1-.09,1.53h.11a2.46,2.46,0,0,1,1-.93,3.24,3.24,0,0,1,1.5-.33q3,0,3,3.05Z"/><path class="cls-8" d="M128.39,234.57a4,4,0,0,1-3-1.13,4.3,4.3,0,0,1-1.1-3.12,4.72,4.72,0,0,1,1-3.21,3.51,3.51,0,0,1,2.79-1.17,3.43,3.43,0,0,1,2.61,1,3.83,3.83,0,0,1,1,2.76v1h-5.55a2.74,2.74,0,0,0,.66,1.86,2.28,2.28,0,0,0,1.74.65,6.43,6.43,0,0,0,1.37-.14,7.21,7.21,0,0,0,1.37-.46V234a5.44,5.44,0,0,1-1.31.44A8,8,0,0,1,128.39,234.57Zm-.32-7.29a1.78,1.78,0,0,0-1.35.54,2.55,2.55,0,0,0-.61,1.56h3.78a2.31,2.31,0,0,0-.5-1.56A1.7,1.7,0,0,0,128.07,227.28Z"/><path class="cls-8" d="M146.52,234.42h-1.81v-5h-5.08v5h-1.8v-11h1.8v4.5h5.08v-4.5h1.81Z"/><path class="cls-8" d="M149.34,223.41h3.27a6.2,6.2,0,0,1,3.29.66,2.32,2.32,0,0,1,1,2.09,2.54,2.54,0,0,1-.5,1.6,2.22,2.22,0,0,1-1.43.81v.08a2.84,2.84,0,0,1,1.71.86,2.61,2.61,0,0,1,.55,1.74,2.83,2.83,0,0,1-1,2.32,4.45,4.45,0,0,1-2.88.84h-4Zm1.8,4.55h1.73a3,3,0,0,0,1.65-.36,1.37,1.37,0,0,0,.52-1.22,1.22,1.22,0,0,0-.56-1.12,3.5,3.5,0,0,0-1.78-.35h-1.56Zm0,1.46v3.49h1.91a2.81,2.81,0,0,0,1.71-.43,1.6,1.6,0,0,0,.58-1.37,1.45,1.45,0,0,0-.59-1.27,3.12,3.12,0,0,0-1.79-.41Z"/><path class="cls-8" d="M164.61,234.42l-.35-1.16h-.06a3.41,3.41,0,0,1-1.21,1,3.83,3.83,0,0,1-1.57.28,2.65,2.65,0,0,1-1.92-.66,2.48,2.48,0,0,1-.69-1.88,2.2,2.2,0,0,1,1-1.94,5.52,5.52,0,0,1,2.92-.72l1.44,0v-.44a1.68,1.68,0,0,0-.37-1.19,1.52,1.52,0,0,0-1.16-.4,4,4,0,0,0-1.23.19,9.33,9.33,0,0,0-1.13.44l-.57-1.27a6.18,6.18,0,0,1,1.48-.54,6.85,6.85,0,0,1,1.52-.18,3.6,3.6,0,0,1,2.4.69,2.71,2.71,0,0,1,.81,2.18v5.61ZM162,233.21a2.19,2.19,0,0,0,1.55-.54,2,2,0,0,0,.58-1.51v-.72l-1.07,0a3.66,3.66,0,0,0-1.82.42,1.27,1.27,0,0,0-.57,1.14,1.11,1.11,0,0,0,.33.86A1.43,1.43,0,0,0,162,233.21Z"/><path class="cls-8" d="M173.94,232a2.18,2.18,0,0,1-.89,1.87,4.25,4.25,0,0,1-2.55.65,6,6,0,0,1-2.67-.5v-1.53a6.56,6.56,0,0,0,2.73.68q1.63,0,1.63-1a.78.78,0,0,0-.18-.53,2.14,2.14,0,0,0-.6-.44,10.27,10.27,0,0,0-1.15-.51,5.33,5.33,0,0,1-1.95-1.11,2.06,2.06,0,0,1-.51-1.45,1.9,1.9,0,0,1,.86-1.66,4.09,4.09,0,0,1,2.35-.59,6.65,6.65,0,0,1,2.78.6l-.57,1.33a6.18,6.18,0,0,0-2.27-.56q-1.4,0-1.4.8a.8.8,0,0,0,.37.66,8,8,0,0,0,1.59.75,7.27,7.27,0,0,1,1.5.73,2.19,2.19,0,0,1,.69.76A2.21,2.21,0,0,1,173.94,232Z"/><path class="cls-8" d="M179.47,234.57a4,4,0,0,1-3-1.13,4.3,4.3,0,0,1-1.1-3.12,4.72,4.72,0,0,1,1-3.21,3.51,3.51,0,0,1,2.79-1.17,3.43,3.43,0,0,1,2.61,1,3.83,3.83,0,0,1,1,2.76v1h-5.55a2.74,2.74,0,0,0,.66,1.86,2.28,2.28,0,0,0,1.74.65,6.43,6.43,0,0,0,1.37-.14,7.21,7.21,0,0,0,1.37-.46V234a5.44,5.44,0,0,1-1.31.44A8,8,0,0,1,179.47,234.57Zm-.32-7.29a1.78,1.78,0,0,0-1.35.54,2.55,2.55,0,0,0-.61,1.56H181a2.31,2.31,0,0,0-.5-1.56A1.7,1.7,0,0,0,179.15,227.28Z"/><path class="cls-8" d="M468,201.75h-2.46V195h-6.91v6.76h-2.45v-15h2.45v6.13h6.91v-6.13H468Z"/><path class="cls-8" d="M478.61,201.75l-.48-1.58H478a4.65,4.65,0,0,1-1.65,1.41,5.24,5.24,0,0,1-2.13.37,3.61,3.61,0,0,1-2.61-.9,3.37,3.37,0,0,1-.94-2.55,3,3,0,0,1,1.3-2.65,7.51,7.51,0,0,1,4-1l2-.06v-.6a2.3,2.3,0,0,0-.51-1.63,2.07,2.07,0,0,0-1.57-.54,5.44,5.44,0,0,0-1.67.26,12.61,12.61,0,0,0-1.54.6l-.78-1.72a8.4,8.4,0,0,1,2-.73,9.32,9.32,0,0,1,2.07-.25,4.9,4.9,0,0,1,3.27.94,3.69,3.69,0,0,1,1.1,3v7.64ZM475,200.11a3,3,0,0,0,2.11-.73,2.66,2.66,0,0,0,.79-2.06v-1l-1.46.06A5,5,0,0,0,474,197a1.73,1.73,0,0,0-.78,1.55,1.52,1.52,0,0,0,.45,1.17A1.94,1.94,0,0,0,475,200.11Z"/><path class="cls-8" d="M487.43,202a4,4,0,0,1-3.31-1.54,8.43,8.43,0,0,1,0-8.66,4,4,0,0,1,3.34-1.55,3.91,3.91,0,0,1,3.4,1.65H491a14.3,14.3,0,0,1-.17-1.93V185.8h2.42v16h-1.89l-.42-1.49h-.11A3.85,3.85,0,0,1,487.43,202Zm.65-1.95a2.62,2.62,0,0,0,2.16-.84,4.4,4.4,0,0,0,.7-2.71v-.34a5.08,5.08,0,0,0-.7-3,2.59,2.59,0,0,0-2.18-.9,2.22,2.22,0,0,0-2,1,5.29,5.29,0,0,0-.69,2.94,5.14,5.14,0,0,0,.67,2.88A2.25,2.25,0,0,0,488.08,200Z"/><path class="cls-8" d="M506.63,196.06a6.19,6.19,0,0,1-1.42,4.34,5.11,5.11,0,0,1-4,1.56,5.43,5.43,0,0,1-2.81-.72,4.73,4.73,0,0,1-1.88-2.06,7,7,0,0,1-.66-3.12,6.15,6.15,0,0,1,1.42-4.31,5.13,5.13,0,0,1,4-1.55,5,5,0,0,1,3.9,1.58A6.12,6.12,0,0,1,506.63,196.06Zm-8.25,0q0,3.93,2.9,3.93t2.87-3.93q0-3.89-2.89-3.89a2.47,2.47,0,0,0-2.2,1A5.12,5.12,0,0,0,498.38,196.06Z"/><path class="cls-8" d="M519.4,196.06A6.19,6.19,0,0,1,518,200.4a5.11,5.11,0,0,1-4,1.56,5.44,5.44,0,0,1-2.81-.72,4.74,4.74,0,0,1-1.88-2.06,7,7,0,0,1-.66-3.12,6.15,6.15,0,0,1,1.42-4.31,5.13,5.13,0,0,1,4-1.55,5,5,0,0,1,3.9,1.58A6.12,6.12,0,0,1,519.4,196.06Zm-8.25,0q0,3.93,2.9,3.93t2.87-3.93q0-3.89-2.89-3.89a2.47,2.47,0,0,0-2.2,1A5.12,5.12,0,0,0,511.14,196.06Z"/><path class="cls-8" d="M527.79,202a4,4,0,0,1-3.34-1.55h-.14q.14,1.44.14,1.74v4.65H522V190.41H524q.08.32.34,1.52h.12a3.77,3.77,0,0,1,3.38-1.72,3.94,3.94,0,0,1,3.31,1.54,8.43,8.43,0,0,1,0,8.65A4,4,0,0,1,527.79,202Zm-.58-9.78a2.5,2.5,0,0,0-2.1.84,4.35,4.35,0,0,0-.66,2.69v.36a5.3,5.3,0,0,0,.66,3,2.44,2.44,0,0,0,2.14.93,2.18,2.18,0,0,0,1.93-1,5.3,5.3,0,0,0,.68-2.92,5.1,5.1,0,0,0-.67-2.89A2.24,2.24,0,0,0,527.21,192.17Z"/><path class="cls-8" d="M547.31,201.75,543,189.23h-.08q.17,2.79.17,5.23v7.29h-2.23v-15h3.46l4.16,11.93h.06l4.29-11.93h3.47v15h-2.36v-7.41q0-1.12.06-2.91t.1-2.17H554l-4.5,12.5Z"/><path class="cls-8" d="M566.87,201.75l-.48-1.58h-.08a4.65,4.65,0,0,1-1.65,1.41,5.23,5.23,0,0,1-2.13.37,3.61,3.61,0,0,1-2.61-.9,3.37,3.37,0,0,1-.94-2.55,3,3,0,0,1,1.3-2.65,7.51,7.51,0,0,1,4-1l2-.06v-.6a2.3,2.3,0,0,0-.51-1.63,2.07,2.07,0,0,0-1.57-.54,5.45,5.45,0,0,0-1.67.26,12.6,12.6,0,0,0-1.54.6l-.78-1.72a8.4,8.4,0,0,1,2-.73,9.32,9.32,0,0,1,2.07-.25,4.9,4.9,0,0,1,3.27.94,3.69,3.69,0,0,1,1.1,3v7.64Zm-3.59-1.64a3,3,0,0,0,2.11-.73,2.66,2.66,0,0,0,.79-2.06v-1l-1.46.06a5,5,0,0,0-2.48.57,1.73,1.73,0,0,0-.77,1.55,1.52,1.52,0,0,0,.45,1.17A1.94,1.94,0,0,0,563.28,200.11Z"/><path class="cls-8" d="M577.53,202a4,4,0,0,1-3.34-1.55H574q.14,1.44.14,1.74v4.65h-2.41V190.41h1.95q.08.32.34,1.52h.12a3.77,3.77,0,0,1,3.38-1.72,3.94,3.94,0,0,1,3.31,1.54,8.43,8.43,0,0,1,0,8.65A4,4,0,0,1,577.53,202Zm-.58-9.78a2.5,2.5,0,0,0-2.1.84,4.35,4.35,0,0,0-.66,2.69v.36a5.3,5.3,0,0,0,.66,3A2.44,2.44,0,0,0,577,200a2.18,2.18,0,0,0,1.93-1,5.3,5.3,0,0,0,.68-2.92,5.1,5.1,0,0,0-.67-2.89A2.24,2.24,0,0,0,576.94,192.17Z"/><path class="cls-8" d="M587.5,195.76v6H585v-15h4.24a7,7,0,0,1,4.3,1.09,3.9,3.9,0,0,1,1.39,3.28,4.1,4.1,0,0,1-2.91,4l4.24,6.63h-2.79l-3.59-6Zm0-2h1.7a3.89,3.89,0,0,0,2.48-.64,2.31,2.31,0,0,0,.77-1.89,2,2,0,0,0-.83-1.83,4.55,4.55,0,0,0-2.5-.55H587.5Z"/><path class="cls-8" d="M602.93,202a5.49,5.49,0,0,1-4.14-1.54,5.86,5.86,0,0,1-1.49-4.25,6.43,6.43,0,0,1,1.38-4.37,4.78,4.78,0,0,1,3.8-1.59,4.67,4.67,0,0,1,3.55,1.36,5.21,5.21,0,0,1,1.3,3.75v1.3h-7.56a3.72,3.72,0,0,0,.89,2.54A3.1,3.1,0,0,0,603,200a8.74,8.74,0,0,0,1.87-.19,9.8,9.8,0,0,0,1.86-.63v2a7.4,7.4,0,0,1-1.78.59A10.94,10.94,0,0,1,602.93,202Zm-.44-9.93a2.42,2.42,0,0,0-1.84.73,3.47,3.47,0,0,0-.83,2.12H605a3.14,3.14,0,0,0-.68-2.13A2.32,2.32,0,0,0,602.49,192Z"/><path class="cls-8" d="M613.94,202a4,4,0,0,1-3.31-1.54,8.43,8.43,0,0,1,0-8.66,4,4,0,0,1,3.34-1.55,3.91,3.91,0,0,1,3.4,1.65h.12a14.43,14.43,0,0,1-.17-1.93V185.8h2.42v16h-1.89l-.42-1.49h-.11A3.85,3.85,0,0,1,613.94,202Zm.65-1.95a2.62,2.62,0,0,0,2.16-.84,4.4,4.4,0,0,0,.7-2.71v-.34a5.09,5.09,0,0,0-.7-3,2.59,2.59,0,0,0-2.18-.9,2.21,2.21,0,0,0-2,1,5.27,5.27,0,0,0-.69,2.94,5.15,5.15,0,0,0,.67,2.88A2.25,2.25,0,0,0,614.59,200Z"/><path class="cls-8" d="M631,201.75l-.34-1.49h-.12a3.43,3.43,0,0,1-1.43,1.24A4.79,4.79,0,0,1,627,202a4.16,4.16,0,0,1-3.08-1,4.25,4.25,0,0,1-1-3.11v-7.41h2.43v7a3,3,0,0,0,.53,2,2,2,0,0,0,1.67.65,2.66,2.66,0,0,0,2.23-.91,5,5,0,0,0,.71-3v-5.65h2.42v11.34Z"/><path class="cls-8" d="M640.86,202a5,5,0,0,1-3.91-1.5,7.62,7.62,0,0,1,.06-8.71,5.19,5.19,0,0,1,4-1.54,7.58,7.58,0,0,1,3.23.67l-.73,1.94a7.3,7.3,0,0,0-2.52-.59q-2.94,0-2.94,3.91a4.67,4.67,0,0,0,.73,2.87,2.53,2.53,0,0,0,2.15,1,6.17,6.17,0,0,0,3-.8v2.1a4.76,4.76,0,0,1-1.38.54A8.28,8.28,0,0,1,640.86,202Z"/><path class="cls-8" d="M651.38,202a5.49,5.49,0,0,1-4.14-1.54,5.86,5.86,0,0,1-1.49-4.25,6.43,6.43,0,0,1,1.38-4.37,4.78,4.78,0,0,1,3.8-1.59,4.67,4.67,0,0,1,3.55,1.36,5.21,5.21,0,0,1,1.3,3.75v1.3h-7.56a3.72,3.72,0,0,0,.89,2.54,3.1,3.1,0,0,0,2.37.89,8.74,8.74,0,0,0,1.87-.19,9.8,9.8,0,0,0,1.86-.63v2a7.4,7.4,0,0,1-1.78.59A10.94,10.94,0,0,1,651.38,202Zm-.44-9.93a2.42,2.42,0,0,0-1.84.73,3.47,3.47,0,0,0-.83,2.12h5.15a3.14,3.14,0,0,0-.68-2.13A2.32,2.32,0,0,0,650.94,192Z"/><path class="cls-9" d="M281.36,231.1h-2.21V225h-6.21v6.07h-2.2V217.64h2.2v5.51h6.21v-5.51h2.21Z"/><path class="cls-9" d="M290.9,231.1l-.43-1.42h-.07a4.17,4.17,0,0,1-1.48,1.27,4.69,4.69,0,0,1-1.92.34,3.24,3.24,0,0,1-2.34-.81,3,3,0,0,1-.84-2.29,2.69,2.69,0,0,1,1.17-2.38,6.75,6.75,0,0,1,3.56-.87l1.76-.06v-.54a2.06,2.06,0,0,0-.46-1.46,1.86,1.86,0,0,0-1.41-.48,4.89,4.89,0,0,0-1.5.23,11.28,11.28,0,0,0-1.38.54l-.7-1.55a7.55,7.55,0,0,1,1.81-.66,8.35,8.35,0,0,1,1.86-.23,4.41,4.41,0,0,1,2.93.85,3.32,3.32,0,0,1,1,2.66v6.86Zm-3.22-1.47a2.68,2.68,0,0,0,1.89-.66,2.39,2.39,0,0,0,.71-1.85v-.88l-1.31.06a4.48,4.48,0,0,0-2.22.51,1.55,1.55,0,0,0-.7,1.4,1.36,1.36,0,0,0,.41,1.05A1.74,1.74,0,0,0,287.67,229.63Z"/><path class="cls-9" d="M298.84,231.29a3.55,3.55,0,0,1-3-1.38,7.57,7.57,0,0,1,0-7.78,3.58,3.58,0,0,1,3-1.4,3.51,3.51,0,0,1,3.06,1.48H302a13,13,0,0,1-.16-1.73v-3.71h2.17V231.1h-1.69l-.38-1.34h-.1A3.46,3.46,0,0,1,298.84,231.29Zm.58-1.75a2.36,2.36,0,0,0,1.94-.75,4,4,0,0,0,.63-2.44V226a4.57,4.57,0,0,0-.63-2.74,2.32,2.32,0,0,0-2-.81,2,2,0,0,0-1.76.93,4.74,4.74,0,0,0-.62,2.64,4.62,4.62,0,0,0,.6,2.58A2,2,0,0,0,299.42,229.54Z"/><path class="cls-9" d="M316.1,226a5.56,5.56,0,0,1-1.28,3.9,4.59,4.59,0,0,1-3.56,1.4,4.88,4.88,0,0,1-2.52-.64,4.26,4.26,0,0,1-1.69-1.85,6.3,6.3,0,0,1-.59-2.8,5.52,5.52,0,0,1,1.27-3.87,4.61,4.61,0,0,1,3.58-1.39,4.49,4.49,0,0,1,3.5,1.42A5.5,5.5,0,0,1,316.1,226Zm-7.41,0q0,3.53,2.61,3.53t2.58-3.53q0-3.49-2.6-3.49a2.21,2.21,0,0,0-2,.9A4.59,4.59,0,0,0,308.69,226Z"/><path class="cls-9" d="M327.58,226a5.56,5.56,0,0,1-1.28,3.9,4.58,4.58,0,0,1-3.56,1.4,4.88,4.88,0,0,1-2.52-.64,4.26,4.26,0,0,1-1.69-1.85,6.3,6.3,0,0,1-.59-2.8,5.52,5.52,0,0,1,1.27-3.87,4.61,4.61,0,0,1,3.58-1.39,4.49,4.49,0,0,1,3.5,1.42A5.49,5.49,0,0,1,327.58,226Zm-7.41,0q0,3.53,2.61,3.53t2.58-3.53q0-3.49-2.6-3.49a2.21,2.21,0,0,0-2,.9A4.59,4.59,0,0,0,320.16,226Z"/><path class="cls-9" d="M335.13,231.29a3.57,3.57,0,0,1-3-1.39H332c.08.86.13,1.38.13,1.57v4.17H330V220.92h1.75q.07.29.3,1.36h.11a3.39,3.39,0,0,1,3-1.55,3.53,3.53,0,0,1,3,1.38,7.58,7.58,0,0,1,0,7.77A3.57,3.57,0,0,1,335.13,231.29Zm-.53-8.79a2.25,2.25,0,0,0-1.88.75,3.91,3.91,0,0,0-.59,2.41V226a4.77,4.77,0,0,0,.59,2.69,2.19,2.19,0,0,0,1.92.83,2,2,0,0,0,1.73-.92A4.76,4.76,0,0,0,337,226a4.59,4.59,0,0,0-.6-2.59A2,2,0,0,0,334.61,222.5Z"/><path class="cls-9" d="M350.65,223.78l3.19-6.14h2.39l-4.49,8.24v5.22h-2.21V226l-4.47-8.32h2.39Z"/><path class="cls-9" d="M365.24,231.1l-1.34-3.74h-5.15l-1.32,3.74h-2.32l5-13.52h2.39l5,13.52Zm-1.92-5.64-1.26-3.67q-.14-.37-.38-1.16t-.34-1.16a20.67,20.67,0,0,1-.73,2.48l-1.22,3.51Z"/><path class="cls-9" d="M371.74,225.72v5.38h-2.2V217.64h3.8a6.25,6.25,0,0,1,3.86,1,3.51,3.51,0,0,1,1.25,2.95,3.68,3.68,0,0,1-2.62,3.58l3.8,6h-2.51l-3.22-5.38Zm0-1.82h1.53a3.49,3.49,0,0,0,2.23-.57,2.07,2.07,0,0,0,.69-1.69,1.83,1.83,0,0,0-.75-1.64,4.09,4.09,0,0,0-2.25-.5h-1.46Z"/><path class="cls-9" d="M392.89,231.1h-2.7l-6.62-10.73h-.07l0,.6q.13,1.71.13,3.13v7h-2V217.64h2.67l6.6,10.67H391q0-.21-.07-1.54t-.06-2.08v-7.05h2Z"/><path class="cls-9" d="M249.37,29.1l-1.28-3.57h-4.91l-1.26,3.57H239.7l4.81-12.9h2.29l4.81,12.9Zm-1.84-5.38-1.2-3.5q-.13-.35-.36-1.11T245.64,18a19.7,19.7,0,0,1-.69,2.36l-1.16,3.35Z"/><path class="cls-9" d="M258.21,29.28A3.4,3.4,0,0,1,255.34,28h-.12q.12,1.23.12,1.49v4h-2.07v-14h1.67q.07.27.29,1.3h.11a3.24,3.24,0,0,1,2.9-1.48,3.37,3.37,0,0,1,2.83,1.32,5.94,5.94,0,0,1,1,3.7,6,6,0,0,1-1,3.72A3.4,3.4,0,0,1,258.21,29.28Zm-.5-8.38a2.15,2.15,0,0,0-1.8.72,3.74,3.74,0,0,0-.57,2.3v.31a4.55,4.55,0,0,0,.56,2.57,2.09,2.09,0,0,0,1.84.8,1.86,1.86,0,0,0,1.65-.88,4.54,4.54,0,0,0,.58-2.5,4.38,4.38,0,0,0-.58-2.47A1.92,1.92,0,0,0,257.71,20.89Z"/><path class="cls-9" d="M270.52,29.1l-.41-1.35H270A4,4,0,0,1,268.62,29a4.48,4.48,0,0,1-1.83.32,3.09,3.09,0,0,1-2.24-.77,2.89,2.89,0,0,1-.8-2.19A2.57,2.57,0,0,1,264.87,24a6.44,6.44,0,0,1,3.4-.83l1.68-.05v-.52a2,2,0,0,0-.44-1.39,1.77,1.77,0,0,0-1.35-.46,4.66,4.66,0,0,0-1.43.22,10.81,10.81,0,0,0-1.32.52L264.74,20a7.19,7.19,0,0,1,1.73-.63,8,8,0,0,1,1.78-.22A4.2,4.2,0,0,1,271,20a3.17,3.17,0,0,1,.94,2.54V29.1Zm-3.08-1.41a2.56,2.56,0,0,0,1.81-.63,2.28,2.28,0,0,0,.68-1.76v-.84l-1.25.05a4.27,4.27,0,0,0-2.12.49,1.48,1.48,0,0,0-.66,1.33,1.3,1.3,0,0,0,.39,1A1.66,1.66,0,0,0,267.44,27.7Z"/><path class="cls-9" d="M278.74,29.28A4.26,4.26,0,0,1,275.39,28a5.38,5.38,0,0,1-1.15-3.7,5.41,5.41,0,0,1,1.2-3.77,4.45,4.45,0,0,1,3.47-1.32,6.5,6.5,0,0,1,2.77.57l-.62,1.66a6.26,6.26,0,0,0-2.16-.51q-2.52,0-2.52,3.35a4,4,0,0,0,.63,2.46,2.18,2.18,0,0,0,1.84.82,5.28,5.28,0,0,0,2.61-.69v1.8a4.08,4.08,0,0,1-1.18.47A7.09,7.09,0,0,1,278.74,29.28Z"/><path class="cls-9" d="M292.14,29.1h-2.07v-6a2.62,2.62,0,0,0-.45-1.68,1.75,1.75,0,0,0-1.44-.55,2.28,2.28,0,0,0-1.91.78,4.29,4.29,0,0,0-.61,2.61V29.1h-2.07V15.43h2.07V18.9a16.2,16.2,0,0,1-.11,1.78h.13a2.86,2.86,0,0,1,1.17-1.09,3.78,3.78,0,0,1,1.75-.39q3.53,0,3.53,3.56Z"/><path class="cls-9" d="M299.18,29.28A4.7,4.7,0,0,1,295.64,28a5,5,0,0,1-1.28-3.64,5.51,5.51,0,0,1,1.19-3.74,4.1,4.1,0,0,1,3.26-1.36,4,4,0,0,1,3,1.17A4.47,4.47,0,0,1,303,23.59v1.12h-6.48a3.19,3.19,0,0,0,.76,2.18,2.66,2.66,0,0,0,2,.76,7.49,7.49,0,0,0,1.6-.16,8.41,8.41,0,0,0,1.6-.54v1.68a6.34,6.34,0,0,1-1.53.51A9.38,9.38,0,0,1,299.18,29.28Zm-.38-8.51a2.08,2.08,0,0,0-1.58.62,3,3,0,0,0-.71,1.82h4.41a2.69,2.69,0,0,0-.58-1.82A2,2,0,0,0,298.81,20.77Z"/><path class="cls-9" d="M320.34,29.1h-2.11V23.31h-5.92V29.1h-2.1V16.25h2.1v5.26h5.92V16.25h2.11Z"/><path class="cls-9" d="M323.26,16.81a1.15,1.15,0,0,1,.3-.85,1.18,1.18,0,0,1,.87-.3,1.16,1.16,0,0,1,.85.3,1.15,1.15,0,0,1,.3.85,1.13,1.13,0,0,1-.3.83,1.15,1.15,0,0,1-.85.3,1.17,1.17,0,0,1-.87-.3A1.13,1.13,0,0,1,323.26,16.81Zm2.19,12.3h-2.07V19.38h2.07Z"/><path class="cls-9" d="M330.72,29.1,327,19.38h2.18l2,5.65a11.2,11.2,0,0,1,.62,2.3h.07a15.46,15.46,0,0,1,.62-2.3l2-5.65h2.2L333,29.1Z"/><path class="cls-9" d="M342.18,29.28A4.7,4.7,0,0,1,338.64,28a5,5,0,0,1-1.28-3.64,5.51,5.51,0,0,1,1.19-3.74,4.1,4.1,0,0,1,3.26-1.36,4,4,0,0,1,3,1.17A4.47,4.47,0,0,1,346,23.59v1.12h-6.48a3.19,3.19,0,0,0,.76,2.18,2.66,2.66,0,0,0,2,.76,7.49,7.49,0,0,0,1.6-.16,8.41,8.41,0,0,0,1.6-.54v1.68a6.34,6.34,0,0,1-1.53.51A9.38,9.38,0,0,1,342.18,29.28Zm-.38-8.51a2.08,2.08,0,0,0-1.58.62,3,3,0,0,0-.71,1.82h4.41a2.69,2.69,0,0,0-.58-1.82A2,2,0,0,0,341.8,20.77Z"/><path class="cls-9" d="M306.74,83.13l-1.09-3h-4.18l-1.07,3h-1.89l4.09-11h1.94l4.09,11Zm-1.56-4.58-1-3q-.11-.3-.31-.94t-.27-.94a16.7,16.7,0,0,1-.59,2l-1,2.85Z"/><path class="cls-9" d="M314.27,83.28a2.9,2.9,0,0,1-2.44-1.13h-.1q.1,1,.1,1.27v3.39h-1.76v-12h1.42q.06.23.25,1.11h.09a2.75,2.75,0,0,1,2.47-1.26,2.87,2.87,0,0,1,2.41,1.12,6.15,6.15,0,0,1,0,6.31A2.9,2.9,0,0,1,314.27,83.28Zm-.43-7.14a1.83,1.83,0,0,0-1.53.61,3.18,3.18,0,0,0-.48,2V79a3.87,3.87,0,0,0,.48,2.19,1.78,1.78,0,0,0,1.56.68,1.59,1.59,0,0,0,1.41-.75,3.86,3.86,0,0,0,.49-2.13,3.73,3.73,0,0,0-.49-2.11A1.63,1.63,0,0,0,313.85,76.14Z"/><path class="cls-9" d="M324.76,83.13,324.41,82h-.06a3.39,3.39,0,0,1-1.2,1,3.81,3.81,0,0,1-1.56.27,2.63,2.63,0,0,1-1.9-.66,2.46,2.46,0,0,1-.68-1.86,2.19,2.19,0,0,1,.95-1.93,5.47,5.47,0,0,1,2.9-.71l1.43,0v-.44a1.67,1.67,0,0,0-.37-1.19,1.51,1.51,0,0,0-1.15-.39,4,4,0,0,0-1.22.19,9.32,9.32,0,0,0-1.12.44l-.57-1.26a6.11,6.11,0,0,1,1.47-.53,6.79,6.79,0,0,1,1.51-.18,3.58,3.58,0,0,1,2.38.69,2.7,2.7,0,0,1,.8,2.16v5.57Zm-2.62-1.2a2.18,2.18,0,0,0,1.54-.54,1.94,1.94,0,0,0,.58-1.5v-.72l-1.06,0a3.64,3.64,0,0,0-1.81.42,1.26,1.26,0,0,0-.56,1.13,1.1,1.1,0,0,0,.33.86A1.41,1.41,0,0,0,322.14,81.93Z"/><path class="cls-9" d="M331.77,83.28a3.62,3.62,0,0,1-2.85-1.1,5.55,5.55,0,0,1,0-6.35,3.79,3.79,0,0,1,3-1.12,5.54,5.54,0,0,1,2.36.49l-.53,1.41a5.33,5.33,0,0,0-1.84-.43q-2.15,0-2.15,2.85a3.41,3.41,0,0,0,.54,2.09,1.85,1.85,0,0,0,1.57.7,4.5,4.5,0,0,0,2.22-.58v1.53a3.46,3.46,0,0,1-1,.4A6,6,0,0,1,331.77,83.28Z"/><path class="cls-9" d="M343.19,83.13h-1.77V78a2.23,2.23,0,0,0-.39-1.43,1.49,1.49,0,0,0-1.22-.47,1.94,1.94,0,0,0-1.63.66,3.65,3.65,0,0,0-.52,2.22v4.11h-1.76V71.49h1.76v3a13.73,13.73,0,0,1-.09,1.52h.11a2.44,2.44,0,0,1,1-.93,3.21,3.21,0,0,1,1.49-.33q3,0,3,3Z"/><path class="cls-9" d="M349.2,83.28a4,4,0,0,1-3-1.13,4.27,4.27,0,0,1-1.09-3.1,4.69,4.69,0,0,1,1-3.19,3.49,3.49,0,0,1,2.78-1.16,3.41,3.41,0,0,1,2.59,1,3.8,3.8,0,0,1,1,2.74v1H346.9a2.72,2.72,0,0,0,.65,1.85,2.27,2.27,0,0,0,1.73.65,6.35,6.35,0,0,0,1.37-.14,7.07,7.07,0,0,0,1.36-.46v1.43a5.41,5.41,0,0,1-1.3.43A8,8,0,0,1,349.2,83.28ZM348.88,76a1.77,1.77,0,0,0-1.34.53,2.53,2.53,0,0,0-.6,1.55h3.76a2.29,2.29,0,0,0-.49-1.55A1.69,1.69,0,0,0,348.88,76Z"/><path class="cls-9" d="M360.35,83.13h-1.77V72.19h6.17V73.7h-4.4v3.42h4.12v1.52h-4.12Z"/><path class="cls-9" d="M368.22,83.13h-1.76V71.49h1.76Z"/><path class="cls-9" d="M376.48,83.13,376.23,82h-.09a2.49,2.49,0,0,1-1,.9,3.48,3.48,0,0,1-1.54.33,3,3,0,0,1-2.24-.75,3.1,3.1,0,0,1-.74-2.27V74.85h1.77V80a2.21,2.21,0,0,0,.39,1.43,1.49,1.49,0,0,0,1.22.48,1.94,1.94,0,0,0,1.63-.66A3.65,3.65,0,0,0,376.1,79V74.85h1.77v8.27Z"/><path class="cls-9" d="M387.23,83.13h-1.77V78a2.31,2.31,0,0,0-.36-1.42,1.33,1.33,0,0,0-1.12-.47,1.71,1.71,0,0,0-1.49.66A3.89,3.89,0,0,0,382,79v4.12h-1.76V74.85h1.38l.25,1.08H382a2.3,2.3,0,0,1,1-.91,3.22,3.22,0,0,1,1.44-.32,2.52,2.52,0,0,1,2.53,1.3h.12a2.52,2.52,0,0,1,1-1,3.28,3.28,0,0,1,1.53-.34,2.78,2.78,0,0,1,2.16.75,3.31,3.31,0,0,1,.68,2.28v5.39h-1.76V78a2.29,2.29,0,0,0-.36-1.42,1.34,1.34,0,0,0-1.13-.47,1.75,1.75,0,0,0-1.5.64,3.3,3.3,0,0,0-.47,2Z"/><path class="cls-9" d="M398.46,83.28a4,4,0,0,1-3-1.13,4.27,4.27,0,0,1-1.09-3.1,4.69,4.69,0,0,1,1-3.19,3.49,3.49,0,0,1,2.78-1.16,3.41,3.41,0,0,1,2.59,1,3.8,3.8,0,0,1,1,2.74v1h-5.51a2.72,2.72,0,0,0,.65,1.85,2.27,2.27,0,0,0,1.73.65,6.35,6.35,0,0,0,1.37-.14,7.1,7.1,0,0,0,1.36-.46v1.43a5.39,5.39,0,0,1-1.3.43A8,8,0,0,1,398.46,83.28ZM398.14,76a1.77,1.77,0,0,0-1.34.53,2.53,2.53,0,0,0-.6,1.55h3.75a2.29,2.29,0,0,0-.49-1.55A1.69,1.69,0,0,0,398.14,76Z"/><path class="cls-9" d="M527.1,146.85l-1.1-3.06h-4.22l-1.08,3.06h-1.9l4.13-11.08h2L529,146.85Zm-1.58-4.62-1-3q-.11-.3-.31-1t-.28-1a16.86,16.86,0,0,1-.6,2l-1,2.88Z"/><path class="cls-9" d="M534.7,147a2.92,2.92,0,0,1-2.46-1.14h-.11q.11,1.06.11,1.28v3.42h-1.77V138.5h1.43q.06.23.25,1.12h.09a2.78,2.78,0,0,1,2.49-1.27,2.9,2.9,0,0,1,2.43,1.13,6.21,6.21,0,0,1,0,6.37A2.93,2.93,0,0,1,534.7,147Zm-.43-7.2a1.84,1.84,0,0,0-1.54.62,3.21,3.21,0,0,0-.49,2v.26a3.91,3.91,0,0,0,.48,2.21,1.8,1.8,0,0,0,1.58.68,1.6,1.6,0,0,0,1.42-.75,3.9,3.9,0,0,0,.5-2.15,3.77,3.77,0,0,0-.49-2.12A1.65,1.65,0,0,0,534.27,139.8Z"/><path class="cls-9" d="M545.29,146.85l-.35-1.16h-.06a3.41,3.41,0,0,1-1.22,1,3.84,3.84,0,0,1-1.57.28,2.66,2.66,0,0,1-1.92-.66,2.48,2.48,0,0,1-.69-1.88,2.21,2.21,0,0,1,1-1.95,5.53,5.53,0,0,1,2.92-.72l1.44,0v-.45a1.69,1.69,0,0,0-.37-1.2,1.52,1.52,0,0,0-1.16-.4,4,4,0,0,0-1.23.19,9.35,9.35,0,0,0-1.13.45l-.57-1.27a6.19,6.19,0,0,1,1.49-.54,6.85,6.85,0,0,1,1.52-.19,3.61,3.61,0,0,1,2.4.69,2.72,2.72,0,0,1,.81,2.18v5.62Zm-2.64-1.21a2.2,2.2,0,0,0,1.55-.54,2,2,0,0,0,.58-1.51v-.72l-1.07,0a3.67,3.67,0,0,0-1.82.42,1.27,1.27,0,0,0-.57,1.14,1.12,1.12,0,0,0,.33.86A1.42,1.42,0,0,0,542.65,145.64Z"/><path class="cls-9" d="M552.36,147a3.66,3.66,0,0,1-2.88-1.11,5.6,5.6,0,0,1,0-6.41,3.82,3.82,0,0,1,3-1.13,5.58,5.58,0,0,1,2.38.49l-.54,1.43a5.36,5.36,0,0,0-1.86-.44q-2.17,0-2.17,2.88a3.45,3.45,0,0,0,.54,2.11,1.87,1.87,0,0,0,1.58.71,4.54,4.54,0,0,0,2.24-.59v1.55a3.5,3.5,0,0,1-1,.4A6.1,6.1,0,0,1,552.36,147Z"/><path class="cls-9" d="M563.88,146.85H562.1v-5.13a2.25,2.25,0,0,0-.39-1.44,1.5,1.5,0,0,0-1.23-.48,2,2,0,0,0-1.64.67,3.68,3.68,0,0,0-.52,2.24v4.14h-1.77V135.1h1.77v3a13.88,13.88,0,0,1-.09,1.53h.11a2.46,2.46,0,0,1,1-.94,3.25,3.25,0,0,1,1.51-.33q3,0,3,3.06Z"/><path class="cls-9" d="M569.94,147a4,4,0,0,1-3-1.14,4.31,4.31,0,0,1-1.1-3.13,4.73,4.73,0,0,1,1-3.22,3.52,3.52,0,0,1,2.8-1.17,3.44,3.44,0,0,1,2.61,1,3.83,3.83,0,0,1,1,2.76v1h-5.56a2.75,2.75,0,0,0,.66,1.87,2.29,2.29,0,0,0,1.74.65,6.42,6.42,0,0,0,1.38-.14,7.2,7.2,0,0,0,1.37-.46v1.44a5.46,5.46,0,0,1-1.31.44A8.05,8.05,0,0,1,569.94,147Zm-.33-7.31a1.78,1.78,0,0,0-1.35.54,2.55,2.55,0,0,0-.61,1.56h3.79a2.32,2.32,0,0,0-.5-1.57A1.71,1.71,0,0,0,569.62,139.69Z"/><path class="cls-9" d="M586.71,139.15a3.22,3.22,0,0,1-1.13,2.65,5,5,0,0,1-3.22.92h-1.15v4.13h-1.8v-11h3.18a4.81,4.81,0,0,1,3.1.85A3,3,0,0,1,586.71,139.15Zm-5.5,2.05h1a3.43,3.43,0,0,0,2-.48,1.76,1.76,0,0,0,.65-1.51,1.71,1.71,0,0,0-.58-1.42,2.87,2.87,0,0,0-1.81-.47h-1.25Z"/><path class="cls-9" d="M588.43,136.29a1,1,0,0,1,.26-.73,1,1,0,0,1,.74-.26,1,1,0,0,1,.73.26,1,1,0,0,1,.26.73,1,1,0,0,1-.26.71,1,1,0,0,1-.73.26,1,1,0,0,1-.74-.26A1,1,0,0,1,588.43,136.29Zm1.88,10.56h-1.77V138.5h1.77Z"/><path class="cls-9" d="M599.82,138.5v1l-1.43.26a2.3,2.3,0,0,1,.32.65,2.55,2.55,0,0,1,.13.81,2.5,2.5,0,0,1-.89,2,3.73,3.73,0,0,1-2.45.74,4,4,0,0,1-.72-.06,1,1,0,0,0-.57.83.46.46,0,0,0,.27.43,2.32,2.32,0,0,0,1,.14h1.46a3.24,3.24,0,0,1,2.1.59,2.07,2.07,0,0,1,.72,1.7,2.47,2.47,0,0,1-1.17,2.19,6.16,6.16,0,0,1-3.38.77,4.67,4.67,0,0,1-2.6-.6,2,2,0,0,1-.9-1.72,1.83,1.83,0,0,1,.49-1.29,2.61,2.61,0,0,1,1.36-.73,1.34,1.34,0,0,1-.58-.49,1.26,1.26,0,0,1,0-1.5,3,3,0,0,1,.79-.64,2.32,2.32,0,0,1-1.05-.91,2.67,2.67,0,0,1-.4-1.48,2.64,2.64,0,0,1,.86-2.11,3.6,3.6,0,0,1,2.44-.75,5.94,5.94,0,0,1,.74,0,4.72,4.72,0,0,1,.58.1Zm-6.56,9.65a1,1,0,0,0,.52.88,2.84,2.84,0,0,0,1.45.31,4.39,4.39,0,0,0,2.16-.42,1.24,1.24,0,0,0,.71-1.1.83.83,0,0,0-.39-.77,3.12,3.12,0,0,0-1.45-.23h-1.34a1.89,1.89,0,0,0-1.21.36A1.18,1.18,0,0,0,593.26,148.15Zm.76-6.94a1.68,1.68,0,0,0,.4,1.21,1.53,1.53,0,0,0,1.16.42q1.54,0,1.54-1.65a1.87,1.87,0,0,0-.38-1.26,1.45,1.45,0,0,0-1.16-.44,1.49,1.49,0,0,0-1.17.44A1.84,1.84,0,0,0,594,141.2Z"/><polyline class="cls-1" points="242 205 206.5 240.5 39 240.5"/><polyline class="cls-1" points="176 190 154.5 211.5 26 211.5"/><circle class="cls-2" cx="26.54" cy="211.75" r="2.46"/><circle class="cls-1" cx="36.54" cy="240.75" r="2.46"/></g></svg>